solid OpenSCAD_Model
  facet normal -1 0 0
    outer loop
      vertex -20 4 -4
      vertex -20 1.9 1
      vertex -20 4 4
    endloop
  endfacet
  facet normal -1 0 0
    outer loop
      vertex -20 4 -4
      vertex -20 -1.9 1
      vertex -20 1.9 1
    endloop
  endfacet
  facet normal -1 0 0
    outer loop
      vertex -20 -4 -4
      vertex -20 -1.9 1
      vertex -20 4 -4
    endloop
  endfacet
  facet normal -1 0 0
    outer loop
      vertex -20 -4 4
      vertex -20 -1.9 1
      vertex -20 -4 -4
    endloop
  endfacet
  facet normal -1 0 0
    outer loop
      vertex -20 -1.9 1
      vertex -20 -4 4
      vertex -20 -1.9 4
    endloop
  endfacet
  facet normal -1 -0 0
    outer loop
      vertex -20 4 4
      vertex -20 1.9 1
      vertex -20 1.9 4
    endloop
  endfacet
  facet normal -0 0 1
    outer loop
      vertex -20 -1.9 4
      vertex 20 -4 4
      vertex 20 -1.9 4
    endloop
  endfacet
  facet normal 0 0 1
    outer loop
      vertex 20 -4 4
      vertex -20 -1.9 4
      vertex -20 -4 4
    endloop
  endfacet
  facet normal -0 0 1
    outer loop
      vertex -20 4 4
      vertex 20 1.9 4
      vertex 20 4 4
    endloop
  endfacet
  facet normal 0 0 1
    outer loop
      vertex 20 1.9 4
      vertex -20 4 4
      vertex -20 1.9 4
    endloop
  endfacet
  facet normal 1 0 0
    outer loop
      vertex 20 -1.9 4
      vertex 20 -4 4
      vertex 20 -1.9 1
    endloop
  endfacet
  facet normal 1 0 0
    outer loop
      vertex 20 1.9 1
      vertex 20 4 4
      vertex 20 1.9 4
    endloop
  endfacet
  facet normal 1 0 0
    outer loop
      vertex 20 4 4
      vertex 20 1.9 1
      vertex 20 4 -4
    endloop
  endfacet
  facet normal 1 -0 0
    outer loop
      vertex 20 -1.9 1
      vertex 20 4 -4
      vertex 20 1.9 1
    endloop
  endfacet
  facet normal 1 0 0
    outer loop
      vertex 20 -1.9 1
      vertex 20 -4 -4
      vertex 20 4 -4
    endloop
  endfacet
  facet normal 1 0 0
    outer loop
      vertex 20 -4 -4
      vertex 20 -1.9 1
      vertex 20 -4 4
    endloop
  endfacet
  facet normal 0 1 -0
    outer loop
      vertex 20 4 -4
      vertex -20 4 4
      vertex 20 4 4
    endloop
  endfacet
  facet normal 0 1 0
    outer loop
      vertex -20 4 4
      vertex 20 4 -4
      vertex -20 4 -4
    endloop
  endfacet
  facet normal 0 0 -1
    outer loop
      vertex -20 -4 -4
      vertex 20 4 -4
      vertex 20 -4 -4
    endloop
  endfacet
  facet normal -0 0 -1
    outer loop
      vertex 20 4 -4
      vertex -20 -4 -4
      vertex -20 4 -4
    endloop
  endfacet
  facet normal 0 -1 0
    outer loop
      vertex -20 -4 -4
      vertex 20 -4 4
      vertex -20 -4 4
    endloop
  endfacet
  facet normal 0 -1 -0
    outer loop
      vertex 20 -4 4
      vertex -20 -4 -4
      vertex 20 -4 -4
    endloop
  endfacet
  facet normal 0 -1 0
    outer loop
      vertex -20 1.9 1
      vertex 20 1.9 4
      vertex -20 1.9 4
    endloop
  endfacet
  facet normal 0 -1 -0
    outer loop
      vertex 20 1.9 4
      vertex -20 1.9 1
      vertex 20 1.9 1
    endloop
  endfacet
  facet normal -0 0 1
    outer loop
      vertex -20 1.9 1
      vertex 20 -1.9 1
      vertex 20 1.9 1
    endloop
  endfacet
  facet normal 0 0 1
    outer loop
      vertex 20 -1.9 1
      vertex -20 1.9 1
      vertex -20 -1.9 1
    endloop
  endfacet
  facet normal 0 1 -0
    outer loop
      vertex 20 -1.9 1
      vertex -20 -1.9 4
      vertex 20 -1.9 4
    endloop
  endfacet
  facet normal 0 1 0
    outer loop
      vertex -20 -1.9 4
      vertex 20 -1.9 1
      vertex -20 -1.9 1
    endloop
  endfacet
endsolid OpenSCAD_Model
