solid OpenSCAD_Model
  facet normal 1 -0 0
    outer loop
      vertex -8 -1.3 3
      vertex -8 0.799999 0.25
      vertex -8 0.799999 3
    endloop
  endfacet
  facet normal 1 0 0
    outer loop
      vertex -8 0.799999 0.25
      vertex -8 -1.3 3
      vertex -8 -1.3 0.25
    endloop
  endfacet
  facet normal -1 0 0
    outer loop
      vertex 8 -1.3 0.25
      vertex 8 0.799999 3
      vertex 8 0.799999 0.25
    endloop
  endfacet
  facet normal -1 -0 0
    outer loop
      vertex 8 0.799999 3
      vertex 8 -1.3 0.25
      vertex 8 -1.3 3
    endloop
  endfacet
  facet normal 0 1 0
    outer loop
      vertex 6.5 -1.3 0.25
      vertex 8 -1.3 3
      vertex 8 -1.3 0.25
    endloop
  endfacet
  facet normal 0 1 0
    outer loop
      vertex 8 -1.3 3
      vertex 6.5 -1.3 0.25
      vertex 1 -1.3 3
    endloop
  endfacet
  facet normal 0 1 0
    outer loop
      vertex 1 -1.3 0
      vertex 6.5 -1.3 0.25
      vertex 6.5 -1.3 0
    endloop
  endfacet
  facet normal 0 1 0
    outer loop
      vertex 6.5 -1.3 0.25
      vertex 1 -1.3 0
      vertex 1 -1.3 3
    endloop
  endfacet
  facet normal 0 1 0
    outer loop
      vertex -1 -1.3 3
      vertex -6.5 -1.3 0.25
      vertex -8 -1.3 3
    endloop
  endfacet
  facet normal 0 1 -0
    outer loop
      vertex -1 -1.3 0
      vertex -6.5 -1.3 0.25
      vertex -1 -1.3 3
    endloop
  endfacet
  facet normal 0 1 0
    outer loop
      vertex -6.5 -1.3 0.25
      vertex -1 -1.3 0
      vertex -6.5 -1.3 0
    endloop
  endfacet
  facet normal 0 1 0
    outer loop
      vertex -8 -1.3 3
      vertex -6.5 -1.3 0.25
      vertex -8 -1.3 0.25
    endloop
  endfacet
  facet normal -1 0 0
    outer loop
      vertex -1 -1.3 0
      vertex -1 -0.799999 3
      vertex -1 -0.799999 0
    endloop
  endfacet
  facet normal -1 -0 0
    outer loop
      vertex -1 -0.799999 3
      vertex -1 -1.3 0
      vertex -1 -1.3 3
    endloop
  endfacet
  facet normal 1 -0 0
    outer loop
      vertex 1 -1.3 3
      vertex 1 -0.799999 0
      vertex 1 -0.799999 3
    endloop
  endfacet
  facet normal 1 0 0
    outer loop
      vertex 1 -0.799999 0
      vertex 1 -1.3 3
      vertex 1 -1.3 0
    endloop
  endfacet
  facet normal 0.989176 0.146736 0
    outer loop
      vertex 9.95185 2.48017 2
      vertex 9.80785 3.4509 0
      vertex 9.80785 3.4509 2
    endloop
  endfacet
  facet normal 0.989176 0.146736 0
    outer loop
      vertex 9.80785 3.4509 0
      vertex 9.95185 2.48017 2
      vertex 9.95185 2.48017 0
    endloop
  endfacet
  facet normal 0.941546 0.336885 0
    outer loop
      vertex 9.5694 4.40285 2
      vertex 9.2388 5.32683 0
      vertex 9.2388 5.32683 2
    endloop
  endfacet
  facet normal 0.941546 0.336885 0
    outer loop
      vertex 9.2388 5.32683 0
      vertex 9.5694 4.40285 2
      vertex 9.5694 4.40285 0
    endloop
  endfacet
  facet normal 0.146637 0.98919 -0
    outer loop
      vertex 1.9509 11.3079 0
      vertex 0.980171 11.4518 2
      vertex 1.9509 11.3079 2
    endloop
  endfacet
  facet normal 0.146637 0.98919 0
    outer loop
      vertex 0.980171 11.4518 2
      vertex 1.9509 11.3079 0
      vertex 0.980171 11.4518 0
    endloop
  endfacet
  facet normal -0.706681 0.0347151 0.706681
    outer loop
      vertex -9.95185 2.48017 2
      vertex -10 1.5 2
      vertex -9 1.5 3
    endloop
  endfacet
  facet normal 0.606872 0.363743 0.706681
    outer loop
      vertex 8.3147 7.0557 2
      vertex 7.93729 5.74257 3
      vertex 8.81921 6.21397 2
    endloop
  endfacet
  facet normal 0.242979 -0.970032 0
    outer loop
      vertex 1.9509 -8.30785 0
      vertex 2.90285 -8.0694 2
      vertex 1.9509 -8.30785 2
    endloop
  endfacet
  facet normal 0.242979 -0.970032 0
    outer loop
      vertex 2.90285 -8.0694 2
      vertex 1.9509 -8.30785 0
      vertex 2.90285 -8.0694 0
    endloop
  endfacet
  facet normal 0.706681 0.0347151 0.706681
    outer loop
      vertex 9.95185 2.48017 2
      vertex 9 1.5 3
      vertex 10 1.5 2
    endloop
  endfacet
  facet normal -0.475146 -0.524252 0.70668
    outer loop
      vertex -5.70954 -5.45709 3
      vertex -7.07107 -5.57107 2
      vertex -6.34393 -6.2301 2
    endloop
  endfacet
  facet normal 0.740957 -0.671553 0
    outer loop
      vertex 7.07107 -5.57107 2
      vertex 7.7301 -4.84393 0
      vertex 7.7301 -4.84393 2
    endloop
  endfacet
  facet normal 0.740957 -0.671553 0
    outer loop
      vertex 7.7301 -4.84393 0
      vertex 7.07107 -5.57107 2
      vertex 7.07107 -5.57107 0
    endloop
  endfacet
  facet normal 0.524252 0.475146 0.70668
    outer loop
      vertex 7.07107 8.57107 2
      vertex 6.95709 7.20954 3
      vertex 7.7301 7.84393 2
    endloop
  endfacet
  facet normal 0.475146 0.524252 0.70668
    outer loop
      vertex 6.34393 9.2301 2
      vertex 5.70954 8.45709 3
      vertex 7.07107 8.57107 2
    endloop
  endfacet
  facet normal 0.238361 0.666186 0.706668
    outer loop
      vertex 2.90285 11.0694 2
      vertex 2.61256 10.1125 3
      vertex 3.82683 10.7388 2
    endloop
  endfacet
  facet normal 0.699876 -0.103821 0.706679
    outer loop
      vertex 9.95185 0.519828 2
      vertex 8.82707 -0.255813 3
      vertex 9.80785 -0.450903 2
    endloop
  endfacet
  facet normal -0.146736 -0.989176 0
    outer loop
      vertex -1.9509 -8.30785 0
      vertex -0.980171 -8.45185 2
      vertex -1.9509 -8.30785 2
    endloop
  endfacet
  facet normal -0.146736 -0.989176 -0
    outer loop
      vertex -0.980171 -8.45185 2
      vertex -1.9509 -8.30785 0
      vertex -0.980171 -8.45185 0
    endloop
  endfacet
  facet normal -0.42148 -0.568294 0.70668
    outer loop
      vertex -5.70954 -5.45709 3
      vertex -6.34393 -6.2301 2
      vertex -5.00013 -5.98323 3
    endloop
  endfacet
  facet normal 0.475148 -0.524247 0.706682
    outer loop
      vertex 6.36396 -4.86396 3
      vertex 5.70954 -5.45709 3
      vertex 7.07107 -5.57107 2
    endloop
  endfacet
  facet normal 0.970032 0.242979 0
    outer loop
      vertex 9.80785 3.4509 2
      vertex 9.5694 4.40285 0
      vertex 9.5694 4.40285 2
    endloop
  endfacet
  facet normal 0.970032 0.242979 0
    outer loop
      vertex 9.5694 4.40285 0
      vertex 9.80785 3.4509 2
      vertex 9.80785 3.4509 0
    endloop
  endfacet
  facet normal 0.639601 0.302512 0.706681
    outer loop
      vertex 8.81921 6.21397 2
      vertex 7.93729 5.74257 3
      vertex 9.2388 5.32683 2
    endloop
  endfacet
  facet normal 0.686329 0.171916 0.706681
    outer loop
      vertex 9.5694 4.40285 2
      vertex 8.61246 4.11256 3
      vertex 9.80785 3.4509 2
    endloop
  endfacet
  facet normal 0.514093 0.857735 -0
    outer loop
      vertex 5.5557 9.8147 0
      vertex 4.71397 10.3192 2
      vertex 5.5557 9.8147 2
    endloop
  endfacet
  facet normal 0.514093 0.857735 0
    outer loop
      vertex 4.71397 10.3192 2
      vertex 5.5557 9.8147 0
      vertex 4.71397 10.3192 0
    endloop
  endfacet
  facet normal 0.363739 0.606878 0.706678
    outer loop
      vertex 4.71397 10.3192 2
      vertex 4.24257 9.43729 3
      vertex 5.5557 9.8147 2
    endloop
  endfacet
  facet normal 0.699873 0.103812 0.706683
    outer loop
      vertex 9.95185 2.48017 2
      vertex 8.82707 3.25581 3
      vertex 8.95666 2.38215 3
    endloop
  endfacet
  facet normal 0.666176 -0.238355 0.70668
    outer loop
      vertex 8.61246 -1.11256 3
      vertex 8.31492 -1.94415 3
      vertex 9.2388 -2.32683 2
    endloop
  endfacet
  facet normal -0.666176 0.238355 0.70668
    outer loop
      vertex -8.31492 4.94415 3
      vertex -9.2388 5.32683 2
      vertex -8.61246 4.11256 3
    endloop
  endfacet
  facet normal -0.989176 -0.146736 0
    outer loop
      vertex -9.80785 -0.450903 0
      vertex -9.95185 0.519828 2
      vertex -9.95185 0.519828 0
    endloop
  endfacet
  facet normal -0.989176 -0.146736 0
    outer loop
      vertex -9.95185 0.519828 2
      vertex -9.80785 -0.450903 0
      vertex -9.80785 -0.450903 2
    endloop
  endfacet
  facet normal -0.671553 -0.740957 0
    outer loop
      vertex -7.07107 -5.57107 0
      vertex -6.34393 -6.2301 2
      vertex -7.07107 -5.57107 2
    endloop
  endfacet
  facet normal -0.671553 -0.740957 -0
    outer loop
      vertex -6.34393 -6.2301 2
      vertex -7.07107 -5.57107 0
      vertex -6.34393 -6.2301 0
    endloop
  endfacet
  facet normal -0.475148 -0.524247 0.706682
    outer loop
      vertex -6.36396 -4.86396 3
      vertex -7.07107 -5.57107 2
      vertex -5.70954 -5.45709 3
    endloop
  endfacet
  facet normal -0.970031 -0.24298 0
    outer loop
      vertex -9.5694 -1.40285 0
      vertex -9.80785 -0.450903 2
      vertex -9.80785 -0.450903 0
    endloop
  endfacet
  facet normal -0.970031 -0.24298 0
    outer loop
      vertex -9.80785 -0.450903 2
      vertex -9.5694 -1.40285 0
      vertex -9.5694 -1.40285 2
    endloop
  endfacet
  facet normal -0.363743 -0.606872 0.706681
    outer loop
      vertex -4.24257 -6.43729 3
      vertex -5.5557 -6.8147 2
      vertex -4.71397 -7.31921 2
    endloop
  endfacet
  facet normal -0.336885 -0.941546 0
    outer loop
      vertex -3.82683 -7.7388 0
      vertex -2.90285 -8.0694 2
      vertex -3.82683 -7.7388 2
    endloop
  endfacet
  facet normal -0.336885 -0.941546 -0
    outer loop
      vertex -2.90285 -8.0694 2
      vertex -3.82683 -7.7388 0
      vertex -2.90285 -8.0694 0
    endloop
  endfacet
  facet normal 0.998796 0.049065 0
    outer loop
      vertex 10 1.5 2
      vertex 9.95185 2.48017 0
      vertex 9.95185 2.48017 2
    endloop
  endfacet
  facet normal 0.998796 0.049065 0
    outer loop
      vertex 9.95185 2.48017 0
      vertex 10 1.5 2
      vertex 10 1.5 0
    endloop
  endfacet
  facet normal 0.68633 0.171921 0.706679
    outer loop
      vertex 9.80785 3.4509 2
      vertex 8.61246 4.11256 3
      vertex 8.82707 3.25581 3
    endloop
  endfacet
  facet normal 0.699876 0.103821 0.706679
    outer loop
      vertex 9.80785 3.4509 2
      vertex 8.82707 3.25581 3
      vertex 9.95185 2.48017 2
    endloop
  endfacet
  facet normal 0.427567 0.903984 -0
    outer loop
      vertex 4.71397 10.3192 0
      vertex 3.82683 10.7388 2
      vertex 4.71397 10.3192 2
    endloop
  endfacet
  facet normal 0.427567 0.903984 0
    outer loop
      vertex 3.82683 10.7388 2
      vertex 4.71397 10.3192 0
      vertex 3.82683 10.7388 0
    endloop
  endfacet
  facet normal 0.568294 0.42148 0.70668
    outer loop
      vertex 7.7301 7.84393 2
      vertex 6.95709 7.20954 3
      vertex 7.48323 6.50013 3
    endloop
  endfacet
  facet normal 0.671553 0.740957 -0
    outer loop
      vertex 7.07107 8.57107 0
      vertex 6.34393 9.2301 2
      vertex 7.07107 8.57107 2
    endloop
  endfacet
  facet normal 0.671553 0.740957 0
    outer loop
      vertex 6.34393 9.2301 2
      vertex 7.07107 8.57107 0
      vertex 6.34393 9.2301 0
    endloop
  endfacet
  facet normal 0.706678 0.0347191 0.706682
    outer loop
      vertex 9.95185 2.48017 2
      vertex 8.95666 2.38215 3
      vertex 9 1.5 3
    endloop
  endfacet
  facet normal 0.941546 -0.336885 0
    outer loop
      vertex 9.2388 -2.32683 2
      vertex 9.5694 -1.40285 0
      vertex 9.5694 -1.40285 2
    endloop
  endfacet
  facet normal 0.941546 -0.336885 0
    outer loop
      vertex 9.5694 -1.40285 0
      vertex 9.2388 -2.32683 2
      vertex 9.2388 -2.32683 0
    endloop
  endfacet
  facet normal 0.998796 -0.0490649 0
    outer loop
      vertex 9.95185 0.519828 2
      vertex 10 1.5 0
      vertex 10 1.5 2
    endloop
  endfacet
  facet normal 0.998796 -0.0490649 0
    outer loop
      vertex 10 1.5 0
      vertex 9.95185 0.519828 2
      vertex 9.95185 0.519828 0
    endloop
  endfacet
  facet normal 0.302513 -0.639601 0.70668
    outer loop
      vertex 4.24257 -6.43729 3
      vertex 3.44415 -6.81492 3
      vertex 3.82683 -7.7388 2
    endloop
  endfacet
  facet normal 0.706678 -0.0347189 0.706682
    outer loop
      vertex 9 1.5 3
      vertex 8.95666 0.617846 3
      vertex 9.95185 0.519828 2
    endloop
  endfacet
  facet normal 0.034715 -0.706681 0.706681
    outer loop
      vertex 0 -7.5 3
      vertex 0 -8.5 2
      vertex 0.980171 -8.45185 2
    endloop
  endfacet
  facet normal -0.242979 -0.970032 0
    outer loop
      vertex -2.90285 -8.0694 0
      vertex -1.9509 -8.30785 2
      vertex -2.90285 -8.0694 2
    endloop
  endfacet
  facet normal -0.242979 -0.970032 -0
    outer loop
      vertex -1.9509 -8.30785 2
      vertex -2.90285 -8.0694 0
      vertex -1.9509 -8.30785 0
    endloop
  endfacet
  facet normal 0.336885 -0.941546 0
    outer loop
      vertex 2.90285 -8.0694 0
      vertex 3.82683 -7.7388 2
      vertex 2.90285 -8.0694 2
    endloop
  endfacet
  facet normal 0.336885 -0.941546 0
    outer loop
      vertex 3.82683 -7.7388 2
      vertex 2.90285 -8.0694 0
      vertex 3.82683 -7.7388 0
    endloop
  endfacet
  facet normal 0.427558 -0.903988 0
    outer loop
      vertex 3.82683 -7.7388 0
      vertex 4.71397 -7.31921 2
      vertex 3.82683 -7.7388 2
    endloop
  endfacet
  facet normal 0.427558 -0.903988 0
    outer loop
      vertex 4.71397 -7.31921 2
      vertex 3.82683 -7.7388 0
      vertex 4.71397 -7.31921 0
    endloop
  endfacet
  facet normal 0.421481 -0.568293 0.70668
    outer loop
      vertex 6.34393 -6.2301 2
      vertex 5.00013 -5.98323 3
      vertex 5.5557 -6.8147 2
    endloop
  endfacet
  facet normal -0.941546 0.336885 0
    outer loop
      vertex -9.5694 4.40285 0
      vertex -9.2388 5.32683 2
      vertex -9.2388 5.32683 0
    endloop
  endfacet
  facet normal -0.941546 0.336885 0
    outer loop
      vertex -9.2388 5.32683 2
      vertex -9.5694 4.40285 0
      vertex -9.5694 4.40285 2
    endloop
  endfacet
  facet normal -0.998796 -0.0490649 0
    outer loop
      vertex -9.95185 0.519828 0
      vertex -10 1.5 2
      vertex -10 1.5 0
    endloop
  endfacet
  facet normal -0.998796 -0.0490649 0
    outer loop
      vertex -10 1.5 2
      vertex -9.95185 0.519828 0
      vertex -9.95185 0.519828 2
    endloop
  endfacet
  facet normal -0.568294 0.42148 0.70668
    outer loop
      vertex -6.95709 7.20954 3
      vertex -7.7301 7.84393 2
      vertex -7.48323 6.50013 3
    endloop
  endfacet
  facet normal -0.740957 0.671553 0
    outer loop
      vertex -7.7301 7.84393 0
      vertex -7.07107 8.57107 2
      vertex -7.07107 8.57107 0
    endloop
  endfacet
  facet normal -0.740957 0.671553 0
    outer loop
      vertex -7.07107 8.57107 2
      vertex -7.7301 7.84393 0
      vertex -7.7301 7.84393 2
    endloop
  endfacet
  facet normal -0.514093 0.857735 0
    outer loop
      vertex -4.71397 10.3192 0
      vertex -5.5557 9.8147 2
      vertex -4.71397 10.3192 2
    endloop
  endfacet
  facet normal -0.514093 0.857735 0
    outer loop
      vertex -5.5557 9.8147 2
      vertex -4.71397 10.3192 0
      vertex -5.5557 9.8147 0
    endloop
  endfacet
  facet normal -0.171921 -0.68633 0.706679
    outer loop
      vertex -1.75581 -7.32707 3
      vertex -2.61256 -7.11246 3
      vertex -1.9509 -8.30785 2
    endloop
  endfacet
  facet normal -0.639601 -0.302513 0.70668
    outer loop
      vertex -8.31492 -1.94415 3
      vertex -9.2388 -2.32683 2
      vertex -7.93729 -2.74257 3
    endloop
  endfacet
  facet normal -0.524247 -0.475148 0.706682
    outer loop
      vertex -6.95709 -4.20954 3
      vertex -7.07107 -5.57107 2
      vertex -6.36396 -4.86396 3
    endloop
  endfacet
  facet normal -0.103821 -0.699876 0.706679
    outer loop
      vertex -1.75581 -7.32707 3
      vertex -1.9509 -8.30785 2
      vertex -0.980171 -8.45185 2
    endloop
  endfacet
  facet normal -0.363742 -0.606873 0.706681
    outer loop
      vertex -5.00013 -5.98323 3
      vertex -5.5557 -6.8147 2
      vertex -4.24257 -6.43729 3
    endloop
  endfacet
  facet normal -0.238357 -0.666174 0.706681
    outer loop
      vertex -2.61256 -7.11246 3
      vertex -3.82683 -7.7388 2
      vertex -2.90285 -8.0694 2
    endloop
  endfacet
  facet normal 0.666174 0.238357 0.706681
    outer loop
      vertex 9.2388 5.32683 2
      vertex 8.61246 4.11256 3
      vertex 9.5694 4.40285 2
    endloop
  endfacet
  facet normal 0.85773 0.5141 0
    outer loop
      vertex 8.81921 6.21397 2
      vertex 8.3147 7.0557 0
      vertex 8.3147 7.0557 2
    endloop
  endfacet
  facet normal 0.85773 0.5141 0
    outer loop
      vertex 8.3147 7.0557 0
      vertex 8.81921 6.21397 2
      vertex 8.81921 6.21397 0
    endloop
  endfacet
  facet normal 0.903988 0.427558 0
    outer loop
      vertex 9.2388 5.32683 2
      vertex 8.81921 6.21397 0
      vertex 8.81921 6.21397 2
    endloop
  endfacet
  facet normal 0.903988 0.427558 0
    outer loop
      vertex 8.81921 6.21397 0
      vertex 9.2388 5.32683 2
      vertex 9.2388 5.32683 0
    endloop
  endfacet
  facet normal 0.302519 0.639601 0.706678
    outer loop
      vertex 4.71397 10.3192 2
      vertex 3.82683 10.7388 2
      vertex 4.24257 9.43729 3
    endloop
  endfacet
  facet normal 0.171953 0.686333 0.706668
    outer loop
      vertex 2.90285 11.0694 2
      vertex 1.9509 11.3079 2
      vertex 2.61256 10.1125 3
    endloop
  endfacet
  facet normal 0.103825 0.699904 0.706651
    outer loop
      vertex 0.980171 11.4518 2
      vertex 0.882154 10.4567 3
      vertex 1.75581 10.3271 3
    endloop
  endfacet
  facet normal 0.0491157 0.998793 -0
    outer loop
      vertex 0.980171 11.4518 0
      vertex 0 11.5 2
      vertex 0.980171 11.4518 2
    endloop
  endfacet
  facet normal 0.0491157 0.998793 0
    outer loop
      vertex 0 11.5 2
      vertex 0.980171 11.4518 0
      vertex 0 11.5 0
    endloop
  endfacet
  facet normal 0.803203 0.595705 0
    outer loop
      vertex 8.3147 7.0557 2
      vertex 7.7301 7.84393 0
      vertex 7.7301 7.84393 2
    endloop
  endfacet
  facet normal 0.803203 0.595705 0
    outer loop
      vertex 7.7301 7.84393 0
      vertex 8.3147 7.0557 2
      vertex 8.3147 7.0557 0
    endloop
  endfacet
  facet normal 0.421481 0.568293 0.70668
    outer loop
      vertex 5.5557 9.8147 2
      vertex 5.00013 8.98323 3
      vertex 6.34393 9.2301 2
    endloop
  endfacet
  facet normal 0.363742 0.606873 0.706681
    outer loop
      vertex 5.5557 9.8147 2
      vertex 4.24257 9.43729 3
      vertex 5.00013 8.98323 3
    endloop
  endfacet
  facet normal 0.740957 0.671553 0
    outer loop
      vertex 7.7301 7.84393 2
      vertex 7.07107 8.57107 0
      vertex 7.07107 8.57107 2
    endloop
  endfacet
  facet normal 0.740957 0.671553 0
    outer loop
      vertex 7.07107 8.57107 0
      vertex 7.7301 7.84393 2
      vertex 7.7301 7.84393 0
    endloop
  endfacet
  facet normal 0.706681 -0.034715 0.706681
    outer loop
      vertex 10 1.5 2
      vertex 9 1.5 3
      vertex 9.95185 0.519828 2
    endloop
  endfacet
  facet normal 0.68633 -0.171921 0.706679
    outer loop
      vertex 8.82707 -0.255813 3
      vertex 8.61246 -1.11256 3
      vertex 9.80785 -0.450903 2
    endloop
  endfacet
  facet normal 0.803203 -0.595705 0
    outer loop
      vertex 7.7301 -4.84393 2
      vertex 8.3147 -4.0557 0
      vertex 8.3147 -4.0557 2
    endloop
  endfacet
  facet normal 0.803203 -0.595705 0
    outer loop
      vertex 8.3147 -4.0557 0
      vertex 7.7301 -4.84393 2
      vertex 7.7301 -4.84393 0
    endloop
  endfacet
  facet normal 0.568293 -0.421481 0.70668
    outer loop
      vertex 8.3147 -4.0557 2
      vertex 7.48323 -3.50013 3
      vertex 7.7301 -4.84393 2
    endloop
  endfacet
  facet normal 0.85773 -0.5141 0
    outer loop
      vertex 8.3147 -4.0557 2
      vertex 8.81921 -3.21397 0
      vertex 8.81921 -3.21397 2
    endloop
  endfacet
  facet normal 0.85773 -0.5141 0
    outer loop
      vertex 8.81921 -3.21397 0
      vertex 8.3147 -4.0557 2
      vertex 8.3147 -4.0557 0
    endloop
  endfacet
  facet normal 0.146736 -0.989176 0
    outer loop
      vertex 0.980171 -8.45185 0
      vertex 1.9509 -8.30785 2
      vertex 0.980171 -8.45185 2
    endloop
  endfacet
  facet normal 0.146736 -0.989176 0
    outer loop
      vertex 1.9509 -8.30785 2
      vertex 0.980171 -8.45185 0
      vertex 1.9509 -8.30785 0
    endloop
  endfacet
  facet normal 0.103813 -0.699873 0.706682
    outer loop
      vertex 1.75581 -7.32707 3
      vertex 0.882154 -7.45666 3
      vertex 0.980171 -8.45185 2
    endloop
  endfacet
  facet normal 0.171916 -0.686329 0.706681
    outer loop
      vertex 2.61256 -7.11246 3
      vertex 1.9509 -8.30785 2
      vertex 2.90285 -8.0694 2
    endloop
  endfacet
  facet normal -0.034715 -0.706681 0.706681
    outer loop
      vertex 0 -7.5 3
      vertex -0.980171 -8.45185 2
      vertex 0 -8.5 2
    endloop
  endfacet
  facet normal 0.5141 -0.85773 0
    outer loop
      vertex 4.71397 -7.31921 0
      vertex 5.5557 -6.8147 2
      vertex 4.71397 -7.31921 2
    endloop
  endfacet
  facet normal 0.5141 -0.85773 0
    outer loop
      vertex 5.5557 -6.8147 2
      vertex 4.71397 -7.31921 0
      vertex 5.5557 -6.8147 0
    endloop
  endfacet
  facet normal 0.42148 -0.568294 0.70668
    outer loop
      vertex 5.70954 -5.45709 3
      vertex 5.00013 -5.98323 3
      vertex 6.34393 -6.2301 2
    endloop
  endfacet
  facet normal 0.475146 -0.524252 0.70668
    outer loop
      vertex 7.07107 -5.57107 2
      vertex 5.70954 -5.45709 3
      vertex 6.34393 -6.2301 2
    endloop
  endfacet
  facet normal -0.706681 -0.034715 0.706681
    outer loop
      vertex -9 1.5 3
      vertex -10 1.5 2
      vertex -9.95185 0.519828 2
    endloop
  endfacet
  facet normal -0.998796 0.049065 0
    outer loop
      vertex -10 1.5 0
      vertex -9.95185 2.48017 2
      vertex -9.95185 2.48017 0
    endloop
  endfacet
  facet normal -0.998796 0.049065 0
    outer loop
      vertex -9.95185 2.48017 2
      vertex -10 1.5 0
      vertex -10 1.5 2
    endloop
  endfacet
  facet normal -0.606873 0.363742 0.706681
    outer loop
      vertex -7.48323 6.50013 3
      vertex -8.3147 7.0557 2
      vertex -7.93729 5.74257 3
    endloop
  endfacet
  facet normal -0.68633 0.171921 0.706679
    outer loop
      vertex -8.61246 4.11256 3
      vertex -9.80785 3.4509 2
      vertex -8.82707 3.25581 3
    endloop
  endfacet
  facet normal -0.970032 0.242979 0
    outer loop
      vertex -9.80785 3.4509 0
      vertex -9.5694 4.40285 2
      vertex -9.5694 4.40285 0
    endloop
  endfacet
  facet normal -0.970032 0.242979 0
    outer loop
      vertex -9.5694 4.40285 2
      vertex -9.80785 3.4509 0
      vertex -9.80785 3.4509 2
    endloop
  endfacet
  facet normal -0.524252 0.475146 0.70668
    outer loop
      vertex -7.07107 8.57107 2
      vertex -7.7301 7.84393 2
      vertex -6.95709 7.20954 3
    endloop
  endfacet
  facet normal -0.903988 0.427558 0
    outer loop
      vertex -9.2388 5.32683 0
      vertex -8.81921 6.21397 2
      vertex -8.81921 6.21397 0
    endloop
  endfacet
  facet normal -0.903988 0.427558 0
    outer loop
      vertex -8.81921 6.21397 2
      vertex -9.2388 5.32683 0
      vertex -9.2388 5.32683 2
    endloop
  endfacet
  facet normal -0.671553 0.740957 0
    outer loop
      vertex -6.34393 9.2301 0
      vertex -7.07107 8.57107 2
      vertex -6.34393 9.2301 2
    endloop
  endfacet
  facet normal -0.671553 0.740957 0
    outer loop
      vertex -7.07107 8.57107 2
      vertex -6.34393 9.2301 0
      vertex -7.07107 8.57107 0
    endloop
  endfacet
  facet normal -0.595705 0.803203 0
    outer loop
      vertex -5.5557 9.8147 0
      vertex -6.34393 9.2301 2
      vertex -5.5557 9.8147 2
    endloop
  endfacet
  facet normal -0.595705 0.803203 0
    outer loop
      vertex -6.34393 9.2301 2
      vertex -5.5557 9.8147 0
      vertex -6.34393 9.2301 0
    endloop
  endfacet
  facet normal -0.421481 0.568293 0.70668
    outer loop
      vertex -5.5557 9.8147 2
      vertex -6.34393 9.2301 2
      vertex -5.00013 8.98323 3
    endloop
  endfacet
  facet normal 0 0 -1
    outer loop
      vertex -6.5 0.799999 0
      vertex -4.25 3.9 0
      vertex -4.25 0.799999 0
    endloop
  endfacet
  facet normal 0 0 -1
    outer loop
      vertex -4.25 3.9 0
      vertex -5.5557 9.8147 0
      vertex -4.71397 10.3192 0
    endloop
  endfacet
  facet normal 0 0 -1
    outer loop
      vertex -4.25 3.9 0
      vertex -6.34393 9.2301 0
      vertex -5.5557 9.8147 0
    endloop
  endfacet
  facet normal 0 0 -1
    outer loop
      vertex -9.5694 4.40285 0
      vertex -4.25 3.9 0
      vertex -6.5 0.799999 0
    endloop
  endfacet
  facet normal 0 0 -1
    outer loop
      vertex -4.25 3.9 0
      vertex -7.07107 8.57107 0
      vertex -6.34393 9.2301 0
    endloop
  endfacet
  facet normal 0 0 -1
    outer loop
      vertex 6.5 0.799999 0
      vertex 10 1.5 0
      vertex 9.95185 0.519828 0
    endloop
  endfacet
  facet normal 0 0 -1
    outer loop
      vertex 6.5 0.799999 0
      vertex 9.95185 0.519828 0
      vertex 9.80785 -0.450903 0
    endloop
  endfacet
  facet normal -0 0 -1
    outer loop
      vertex 10 1.5 0
      vertex 6.5 0.799999 0
      vertex 9.95185 2.48017 0
    endloop
  endfacet
  facet normal 0 0 -1
    outer loop
      vertex 6.5 -1.3 0
      vertex 9.80785 -0.450903 0
      vertex 9.5694 -1.40285 0
    endloop
  endfacet
  facet normal -0 0 -1
    outer loop
      vertex 9.95185 2.48017 0
      vertex 6.5 0.799999 0
      vertex 9.80785 3.4509 0
    endloop
  endfacet
  facet normal 0 0 -1
    outer loop
      vertex 7.5 -2.25 0
      vertex 9.5694 -1.40285 0
      vertex 9.2388 -2.32683 0
    endloop
  endfacet
  facet normal -0 0 -1
    outer loop
      vertex 9.80785 3.4509 0
      vertex 6.5 0.799999 0
      vertex 9.5694 4.40285 0
    endloop
  endfacet
  facet normal 0 0 -1
    outer loop
      vertex 7.5 -2.25 0
      vertex 9.2388 -2.32683 0
      vertex 8.81921 -3.21397 0
    endloop
  endfacet
  facet normal 0 0 -1
    outer loop
      vertex 4.25 3.9 0
      vertex 9.5694 4.40285 0
      vertex 6.5 0.799999 0
    endloop
  endfacet
  facet normal 0 0 -1
    outer loop
      vertex 7.5 -2.75 0
      vertex 8.81921 -3.21397 0
      vertex 8.3147 -4.0557 0
    endloop
  endfacet
  facet normal 0 0 -1
    outer loop
      vertex 6.5 -1.3 0
      vertex 9.5694 -1.40285 0
      vertex 7.5 -2.25 0
    endloop
  endfacet
  facet normal 0 0 -1
    outer loop
      vertex 7.5 -2.75 0
      vertex 8.3147 -4.0557 0
      vertex 7.7301 -4.84393 0
    endloop
  endfacet
  facet normal -0 0 -1
    outer loop
      vertex 9.5694 4.40285 0
      vertex 4.25 3.9 0
      vertex 9.2388 5.32683 0
    endloop
  endfacet
  facet normal 0 0 -1
    outer loop
      vertex 8.81921 -3.21397 0
      vertex 7.5 -2.75 0
      vertex 7.5 -2.25 0
    endloop
  endfacet
  facet normal 0 0 -1
    outer loop
      vertex 7.07107 -5.57107 0
      vertex 7.5 -2.75 0
      vertex 7.7301 -4.84393 0
    endloop
  endfacet
  facet normal 0 0 -1
    outer loop
      vertex 6.34393 -6.2301 0
      vertex 7.5 -2.75 0
      vertex 7.07107 -5.57107 0
    endloop
  endfacet
  facet normal 0 0 -1
    outer loop
      vertex 5.5557 -6.8147 0
      vertex 7.5 -2.75 0
      vertex 6.34393 -6.2301 0
    endloop
  endfacet
  facet normal 0 0 -1
    outer loop
      vertex 4.71397 -7.31921 0
      vertex 7.5 -2.75 0
      vertex 5.5557 -6.8147 0
    endloop
  endfacet
  facet normal 0 0 -1
    outer loop
      vertex 3.82683 -7.7388 0
      vertex 7.5 -2.75 0
      vertex 4.71397 -7.31921 0
    endloop
  endfacet
  facet normal 0 0 -1
    outer loop
      vertex 2.90285 -8.0694 0
      vertex 7.5 -2.75 0
      vertex 3.82683 -7.7388 0
    endloop
  endfacet
  facet normal 0 0 -1
    outer loop
      vertex 1.9509 -8.30785 0
      vertex 7.5 -2.75 0
      vertex 2.90285 -8.0694 0
    endloop
  endfacet
  facet normal 0 0 -1
    outer loop
      vertex 0.980171 -8.45185 0
      vertex 7.5 -2.75 0
      vertex 1.9509 -8.30785 0
    endloop
  endfacet
  facet normal 0 0 -1
    outer loop
      vertex 0 -8.5 0
      vertex 7.5 -2.75 0
      vertex 0.980171 -8.45185 0
    endloop
  endfacet
  facet normal 0 0 -1
    outer loop
      vertex -7.5 -2.75 0
      vertex 0 -8.5 0
      vertex -0.980171 -8.45185 0
    endloop
  endfacet
  facet normal 0 0 -1
    outer loop
      vertex -7.5 -2.75 0
      vertex -0.980171 -8.45185 0
      vertex -1.9509 -8.30785 0
    endloop
  endfacet
  facet normal 0 0 -1
    outer loop
      vertex -7.5 -2.75 0
      vertex -1.9509 -8.30785 0
      vertex -2.90285 -8.0694 0
    endloop
  endfacet
  facet normal 0 0 -1
    outer loop
      vertex -7.5 -2.75 0
      vertex -2.90285 -8.0694 0
      vertex -3.82683 -7.7388 0
    endloop
  endfacet
  facet normal 0 0 -1
    outer loop
      vertex -7.5 -2.75 0
      vertex -3.82683 -7.7388 0
      vertex -4.71397 -7.31921 0
    endloop
  endfacet
  facet normal 0 0 -1
    outer loop
      vertex -7.5 -2.75 0
      vertex -4.71397 -7.31921 0
      vertex -5.5557 -6.8147 0
    endloop
  endfacet
  facet normal 0 0 -1
    outer loop
      vertex -7.5 -2.75 0
      vertex -5.5557 -6.8147 0
      vertex -6.34393 -6.2301 0
    endloop
  endfacet
  facet normal 0 0 -1
    outer loop
      vertex -7.5 -2.75 0
      vertex -6.34393 -6.2301 0
      vertex -7.07107 -5.57107 0
    endloop
  endfacet
  facet normal 0 0 -1
    outer loop
      vertex 0 -8.5 0
      vertex -7.5 -2.75 0
      vertex 7.5 -2.75 0
    endloop
  endfacet
  facet normal 0 0 -1
    outer loop
      vertex -8.3147 -4.0557 0
      vertex -7.5 -2.75 0
      vertex -7.7301 -4.84393 0
    endloop
  endfacet
  facet normal 0 0 -1
    outer loop
      vertex -7.7301 -4.84393 0
      vertex -7.5 -2.75 0
      vertex -7.07107 -5.57107 0
    endloop
  endfacet
  facet normal -0 0 -1
    outer loop
      vertex 9.2388 5.32683 0
      vertex 4.25 3.9 0
      vertex 8.81921 6.21397 0
    endloop
  endfacet
  facet normal -0 0 -1
    outer loop
      vertex 8.81921 6.21397 0
      vertex 4.25 3.9 0
      vertex 8.3147 7.0557 0
    endloop
  endfacet
  facet normal -0 0 -1
    outer loop
      vertex 9.80785 -0.450903 0
      vertex 6.5 -1.3 0
      vertex 6.5 0.799999 0
    endloop
  endfacet
  facet normal 0 0 -1
    outer loop
      vertex 7.5 -2.25 0
      vertex 1 -1.3 0
      vertex 6.5 -1.3 0
    endloop
  endfacet
  facet normal 0 0 -1
    outer loop
      vertex 1 -1.3 0
      vertex -1 -1.3 0
      vertex 1 -0.799999 0
    endloop
  endfacet
  facet normal 0 0 -1
    outer loop
      vertex 7.5 -2.25 0
      vertex -1 -1.3 0
      vertex 1 -1.3 0
    endloop
  endfacet
  facet normal 0 0 -1
    outer loop
      vertex -7.5 -2.25 0
      vertex -1 -1.3 0
      vertex 7.5 -2.25 0
    endloop
  endfacet
  facet normal 0 0 -1
    outer loop
      vertex -9.80785 -0.450903 0
      vertex -6.5 0.799999 0
      vertex -6.5 -1.3 0
    endloop
  endfacet
  facet normal -0 0 -1
    outer loop
      vertex -1 -1.3 0
      vertex -7.5 -2.25 0
      vertex -6.5 -1.3 0
    endloop
  endfacet
  facet normal 0 0 -1
    outer loop
      vertex -9.5694 -1.40285 0
      vertex -6.5 -1.3 0
      vertex -7.5 -2.25 0
    endloop
  endfacet
  facet normal 0 0 -1
    outer loop
      vertex -8.81921 -3.21397 0
      vertex -7.5 -2.75 0
      vertex -8.3147 -4.0557 0
    endloop
  endfacet
  facet normal 0 0 -1
    outer loop
      vertex -4.25 3.9 0
      vertex -7.7301 7.84393 0
      vertex -7.07107 8.57107 0
    endloop
  endfacet
  facet normal -0 0 -1
    outer loop
      vertex -7.5 -2.75 0
      vertex -8.81921 -3.21397 0
      vertex -7.5 -2.25 0
    endloop
  endfacet
  facet normal 0 0 -1
    outer loop
      vertex -4.25 3.9 0
      vertex -8.3147 7.0557 0
      vertex -7.7301 7.84393 0
    endloop
  endfacet
  facet normal 0 0 -1
    outer loop
      vertex -9.2388 -2.32683 0
      vertex -7.5 -2.25 0
      vertex -8.81921 -3.21397 0
    endloop
  endfacet
  facet normal 0 0 -1
    outer loop
      vertex -4.25 3.9 0
      vertex -8.81921 6.21397 0
      vertex -8.3147 7.0557 0
    endloop
  endfacet
  facet normal 0 0 -1
    outer loop
      vertex -9.5694 -1.40285 0
      vertex -7.5 -2.25 0
      vertex -9.2388 -2.32683 0
    endloop
  endfacet
  facet normal 0 0 -1
    outer loop
      vertex -4.25 3.9 0
      vertex -9.2388 5.32683 0
      vertex -8.81921 6.21397 0
    endloop
  endfacet
  facet normal -0 0 -1
    outer loop
      vertex -6.5 -1.3 0
      vertex -9.5694 -1.40285 0
      vertex -9.80785 -0.450903 0
    endloop
  endfacet
  facet normal 0 0 -1
    outer loop
      vertex -4.25 3.9 0
      vertex -9.5694 4.40285 0
      vertex -9.2388 5.32683 0
    endloop
  endfacet
  facet normal 0 0 -1
    outer loop
      vertex -6.5 0.799999 0
      vertex -9.80785 -0.450903 0
      vertex -9.95185 0.519828 0
    endloop
  endfacet
  facet normal 0 0 -1
    outer loop
      vertex -6.5 0.799999 0
      vertex -9.80785 3.4509 0
      vertex -9.5694 4.40285 0
    endloop
  endfacet
  facet normal -0 0 -1
    outer loop
      vertex -6.5 0.799999 0
      vertex -9.95185 0.519828 0
      vertex -10 1.5 0
    endloop
  endfacet
  facet normal 0 0 -1
    outer loop
      vertex -6.5 0.799999 0
      vertex -9.95185 2.48017 0
      vertex -9.80785 3.4509 0
    endloop
  endfacet
  facet normal 0 0 -1
    outer loop
      vertex -6.5 0.799999 0
      vertex -10 1.5 0
      vertex -9.95185 2.48017 0
    endloop
  endfacet
  facet normal -0 0 -1
    outer loop
      vertex 8.3147 7.0557 0
      vertex 4.25 3.9 0
      vertex 7.7301 7.84393 0
    endloop
  endfacet
  facet normal -0 0 -1
    outer loop
      vertex 7.7301 7.84393 0
      vertex 4.25 3.9 0
      vertex 7.07107 8.57107 0
    endloop
  endfacet
  facet normal -0 0 -1
    outer loop
      vertex 7.07107 8.57107 0
      vertex 4.25 3.9 0
      vertex 6.34393 9.2301 0
    endloop
  endfacet
  facet normal -0 0 -1
    outer loop
      vertex 6.34393 9.2301 0
      vertex 4.25 3.9 0
      vertex 5.5557 9.8147 0
    endloop
  endfacet
  facet normal 0 0 -1
    outer loop
      vertex 4.25 3.9 0
      vertex 6.5 0.799999 0
      vertex 4.25 0.799999 0
    endloop
  endfacet
  facet normal -0 0 -1
    outer loop
      vertex 5.5557 9.8147 0
      vertex 4.25 3.9 0
      vertex 4.71397 10.3192 0
    endloop
  endfacet
  facet normal 0 0 -1
    outer loop
      vertex 4.25 3.9 0
      vertex 3.82683 10.7388 0
      vertex 4.71397 10.3192 0
    endloop
  endfacet
  facet normal 0 0 -1
    outer loop
      vertex 4.25 3.9 0
      vertex 2.90285 11.0694 0
      vertex 3.82683 10.7388 0
    endloop
  endfacet
  facet normal 0 0 -1
    outer loop
      vertex 4.25 3.9 0
      vertex 1.9509 11.3079 0
      vertex 2.90285 11.0694 0
    endloop
  endfacet
  facet normal 0 0 -1
    outer loop
      vertex 4.25 3.9 0
      vertex 0.980171 11.4518 0
      vertex 1.9509 11.3079 0
    endloop
  endfacet
  facet normal 0 0 -1
    outer loop
      vertex 4.25 3.9 0
      vertex 0 11.5 0
      vertex 0.980171 11.4518 0
    endloop
  endfacet
  facet normal 0 0 -1
    outer loop
      vertex -4.25 3.9 0
      vertex 0 11.5 0
      vertex 4.25 3.9 0
    endloop
  endfacet
  facet normal 0 0 -1
    outer loop
      vertex 0 11.5 0
      vertex -4.25 3.9 0
      vertex -0.980171 11.4518 0
    endloop
  endfacet
  facet normal 0 0 -1
    outer loop
      vertex -0.980171 11.4518 0
      vertex -4.25 3.9 0
      vertex -1.9509 11.3079 0
    endloop
  endfacet
  facet normal 0 0 -1
    outer loop
      vertex -1.9509 11.3079 0
      vertex -4.25 3.9 0
      vertex -2.90285 11.0694 0
    endloop
  endfacet
  facet normal 0 0 -1
    outer loop
      vertex -2.90285 11.0694 0
      vertex -4.25 3.9 0
      vertex -3.82683 10.7388 0
    endloop
  endfacet
  facet normal 0 0 -1
    outer loop
      vertex -3.82683 10.7388 0
      vertex -4.25 3.9 0
      vertex -4.71397 10.3192 0
    endloop
  endfacet
  facet normal -0 0 -1
    outer loop
      vertex 1 -0.799999 0
      vertex -1 -1.3 0
      vertex -1 -0.799999 0
    endloop
  endfacet
  facet normal -0.903988 -0.427558 0
    outer loop
      vertex -8.81921 -3.21397 0
      vertex -9.2388 -2.32683 2
      vertex -9.2388 -2.32683 0
    endloop
  endfacet
  facet normal -0.903988 -0.427558 0
    outer loop
      vertex -9.2388 -2.32683 2
      vertex -8.81921 -3.21397 0
      vertex -8.81921 -3.21397 2
    endloop
  endfacet
  facet normal -0.427558 -0.903988 0
    outer loop
      vertex -4.71397 -7.31921 0
      vertex -3.82683 -7.7388 2
      vertex -4.71397 -7.31921 2
    endloop
  endfacet
  facet normal -0.427558 -0.903988 -0
    outer loop
      vertex -3.82683 -7.7388 2
      vertex -4.71397 -7.31921 0
      vertex -3.82683 -7.7388 0
    endloop
  endfacet
  facet normal -0.85773 -0.5141 0
    outer loop
      vertex -8.3147 -4.0557 0
      vertex -8.81921 -3.21397 2
      vertex -8.81921 -3.21397 0
    endloop
  endfacet
  facet normal -0.85773 -0.5141 0
    outer loop
      vertex -8.81921 -3.21397 2
      vertex -8.3147 -4.0557 0
      vertex -8.3147 -4.0557 2
    endloop
  endfacet
  facet normal -0.740957 -0.671553 0
    outer loop
      vertex -7.07107 -5.57107 0
      vertex -7.7301 -4.84393 2
      vertex -7.7301 -4.84393 0
    endloop
  endfacet
  facet normal -0.740957 -0.671553 0
    outer loop
      vertex -7.7301 -4.84393 2
      vertex -7.07107 -5.57107 0
      vertex -7.07107 -5.57107 2
    endloop
  endfacet
  facet normal -0.421481 -0.568293 0.70668
    outer loop
      vertex -5.00013 -5.98323 3
      vertex -6.34393 -6.2301 2
      vertex -5.5557 -6.8147 2
    endloop
  endfacet
  facet normal -0.639601 -0.302512 0.706681
    outer loop
      vertex -7.93729 -2.74257 3
      vertex -9.2388 -2.32683 2
      vertex -8.81921 -3.21397 2
    endloop
  endfacet
  facet normal -0.595705 -0.803203 0
    outer loop
      vertex -6.34393 -6.2301 0
      vertex -5.5557 -6.8147 2
      vertex -6.34393 -6.2301 2
    endloop
  endfacet
  facet normal -0.595705 -0.803203 -0
    outer loop
      vertex -5.5557 -6.8147 2
      vertex -6.34393 -6.2301 0
      vertex -5.5557 -6.8147 0
    endloop
  endfacet
  facet normal -0.238355 -0.666176 0.70668
    outer loop
      vertex -3.44415 -6.81492 3
      vertex -3.82683 -7.7388 2
      vertex -2.61256 -7.11246 3
    endloop
  endfacet
  facet normal 0.666176 0.238355 0.70668
    outer loop
      vertex 9.2388 5.32683 2
      vertex 8.31492 4.94415 3
      vertex 8.61246 4.11256 3
    endloop
  endfacet
  facet normal 0.639601 0.302513 0.70668
    outer loop
      vertex 9.2388 5.32683 2
      vertex 7.93729 5.74257 3
      vertex 8.31492 4.94415 3
    endloop
  endfacet
  facet normal 0.595705 0.803203 -0
    outer loop
      vertex 6.34393 9.2301 0
      vertex 5.5557 9.8147 2
      vertex 6.34393 9.2301 2
    endloop
  endfacet
  facet normal 0.595705 0.803203 0
    outer loop
      vertex 5.5557 9.8147 2
      vertex 6.34393 9.2301 0
      vertex 5.5557 9.8147 0
    endloop
  endfacet
  facet normal 0.243027 0.970019 -0
    outer loop
      vertex 2.90285 11.0694 0
      vertex 1.9509 11.3079 2
      vertex 2.90285 11.0694 2
    endloop
  endfacet
  facet normal 0.243027 0.970019 0
    outer loop
      vertex 1.9509 11.3079 2
      vertex 2.90285 11.0694 0
      vertex 1.9509 11.3079 0
    endloop
  endfacet
  facet normal 0.238383 0.666165 0.706681
    outer loop
      vertex 3.82683 10.7388 2
      vertex 2.61256 10.1125 3
      vertex 3.44415 9.81492 3
    endloop
  endfacet
  facet normal -0.363739 0.606878 0.706678
    outer loop
      vertex -4.71397 10.3192 2
      vertex -5.5557 9.8147 2
      vertex -4.24257 9.43729 3
    endloop
  endfacet
  facet normal -0.243027 0.970019 0
    outer loop
      vertex -1.9509 11.3079 0
      vertex -2.90285 11.0694 2
      vertex -1.9509 11.3079 2
    endloop
  endfacet
  facet normal -0.243027 0.970019 0
    outer loop
      vertex -2.90285 11.0694 2
      vertex -1.9509 11.3079 0
      vertex -2.90285 11.0694 0
    endloop
  endfacet
  facet normal 0.568293 0.421481 0.70668
    outer loop
      vertex 7.7301 7.84393 2
      vertex 7.48323 6.50013 3
      vertex 8.3147 7.0557 2
    endloop
  endfacet
  facet normal 0.606873 0.363742 0.706681
    outer loop
      vertex 8.3147 7.0557 2
      vertex 7.48323 6.50013 3
      vertex 7.93729 5.74257 3
    endloop
  endfacet
  facet normal 0.42148 0.568294 0.70668
    outer loop
      vertex 6.34393 9.2301 2
      vertex 5.00013 8.98323 3
      vertex 5.70954 8.45709 3
    endloop
  endfacet
  facet normal 0.989176 -0.146736 0
    outer loop
      vertex 9.80785 -0.450903 2
      vertex 9.95185 0.519828 0
      vertex 9.95185 0.519828 2
    endloop
  endfacet
  facet normal 0.989176 -0.146736 0
    outer loop
      vertex 9.95185 0.519828 0
      vertex 9.80785 -0.450903 2
      vertex 9.80785 -0.450903 0
    endloop
  endfacet
  facet normal 0.699873 -0.103812 0.706683
    outer loop
      vertex 8.95666 0.617846 3
      vertex 8.82707 -0.255813 3
      vertex 9.95185 0.519828 2
    endloop
  endfacet
  facet normal 0.970031 -0.24298 0
    outer loop
      vertex 9.5694 -1.40285 2
      vertex 9.80785 -0.450903 0
      vertex 9.80785 -0.450903 2
    endloop
  endfacet
  facet normal 0.970031 -0.24298 0
    outer loop
      vertex 9.80785 -0.450903 0
      vertex 9.5694 -1.40285 2
      vertex 9.5694 -1.40285 0
    endloop
  endfacet
  facet normal 0.606873 -0.363742 0.706681
    outer loop
      vertex 7.93729 -2.74257 3
      vertex 7.48323 -3.50013 3
      vertex 8.3147 -4.0557 2
    endloop
  endfacet
  facet normal 0.903988 -0.427558 0
    outer loop
      vertex 8.81921 -3.21397 2
      vertex 9.2388 -2.32683 0
      vertex 9.2388 -2.32683 2
    endloop
  endfacet
  facet normal 0.903988 -0.427558 0
    outer loop
      vertex 9.2388 -2.32683 0
      vertex 8.81921 -3.21397 2
      vertex 8.81921 -3.21397 0
    endloop
  endfacet
  facet normal 0.606872 -0.363743 0.706681
    outer loop
      vertex 8.81921 -3.21397 2
      vertex 7.93729 -2.74257 3
      vertex 8.3147 -4.0557 2
    endloop
  endfacet
  facet normal 0.0347189 -0.706679 0.706682
    outer loop
      vertex 0.882154 -7.45666 3
      vertex 0 -7.5 3
      vertex 0.980171 -8.45185 2
    endloop
  endfacet
  facet normal 0.0490649 -0.998796 0
    outer loop
      vertex 0 -8.5 0
      vertex 0.980171 -8.45185 2
      vertex 0 -8.5 2
    endloop
  endfacet
  facet normal 0.0490649 -0.998796 0
    outer loop
      vertex 0.980171 -8.45185 2
      vertex 0 -8.5 0
      vertex 0.980171 -8.45185 0
    endloop
  endfacet
  facet normal -0.0347189 -0.706679 0.706682
    outer loop
      vertex -0.882154 -7.45666 3
      vertex -0.980171 -8.45185 2
      vertex 0 -7.5 3
    endloop
  endfacet
  facet normal -0.0490649 -0.998796 0
    outer loop
      vertex -0.980171 -8.45185 0
      vertex 0 -8.5 2
      vertex -0.980171 -8.45185 2
    endloop
  endfacet
  facet normal -0.0490649 -0.998796 -0
    outer loop
      vertex 0 -8.5 2
      vertex -0.980171 -8.45185 0
      vertex 0 -8.5 0
    endloop
  endfacet
  facet normal 0.671553 -0.740957 0
    outer loop
      vertex 6.34393 -6.2301 0
      vertex 7.07107 -5.57107 2
      vertex 6.34393 -6.2301 2
    endloop
  endfacet
  facet normal 0.671553 -0.740957 0
    outer loop
      vertex 7.07107 -5.57107 2
      vertex 6.34393 -6.2301 0
      vertex 7.07107 -5.57107 0
    endloop
  endfacet
  facet normal 0.302512 -0.639601 0.706681
    outer loop
      vertex 4.24257 -6.43729 3
      vertex 3.82683 -7.7388 2
      vertex 4.71397 -7.31921 2
    endloop
  endfacet
  facet normal 0.363743 -0.606872 0.706681
    outer loop
      vertex 5.5557 -6.8147 2
      vertex 4.24257 -6.43729 3
      vertex 4.71397 -7.31921 2
    endloop
  endfacet
  facet normal 0 0 1
    outer loop
      vertex 1 -0.799999 3
      vertex -1 -0.799999 3
      vertex 1 -1.3 3
    endloop
  endfacet
  facet normal 0 0 1
    outer loop
      vertex 4.5 5.1 3
      vertex -4.25 3.9 3
      vertex 4.25 3.9 3
    endloop
  endfacet
  facet normal -0 0 1
    outer loop
      vertex -4.5 5.1 3
      vertex -4.25 3.9 3
      vertex 4.5 5.1 3
    endloop
  endfacet
  facet normal -0 0 1
    outer loop
      vertex -8.31492 4.94415 3
      vertex -4.25 3.9 3
      vertex -4.5 5.1 3
    endloop
  endfacet
  facet normal -0 0 1
    outer loop
      vertex -6.36396 7.86396 3
      vertex -4.5 7.5 3
      vertex -5.70954 8.45709 3
    endloop
  endfacet
  facet normal 0 0 1
    outer loop
      vertex -6.95709 7.20954 3
      vertex -4.5 7.5 3
      vertex -6.36396 7.86396 3
    endloop
  endfacet
  facet normal 0 0 1
    outer loop
      vertex -4.5 7.5 3
      vertex -6.95709 7.20954 3
      vertex -4.5 5.1 3
    endloop
  endfacet
  facet normal -0 0 1
    outer loop
      vertex -7.48323 6.50013 3
      vertex -4.5 5.1 3
      vertex -6.95709 7.20954 3
    endloop
  endfacet
  facet normal -0 0 1
    outer loop
      vertex -7.93729 5.74257 3
      vertex -4.5 5.1 3
      vertex -7.48323 6.50013 3
    endloop
  endfacet
  facet normal 0 0 1
    outer loop
      vertex -8.31492 4.94415 3
      vertex -4.5 5.1 3
      vertex -7.93729 5.74257 3
    endloop
  endfacet
  facet normal 0 0 1
    outer loop
      vertex -4.25 3.9 3
      vertex -8.31492 4.94415 3
      vertex -8.61246 4.11256 3
    endloop
  endfacet
  facet normal 0 -0 1
    outer loop
      vertex -8 0.799999 3
      vertex -4.25 3.9 3
      vertex -8.82707 3.25581 3
    endloop
  endfacet
  facet normal 0 0 1
    outer loop
      vertex -4.25 3.9 3
      vertex -8.61246 4.11256 3
      vertex -8.82707 3.25581 3
    endloop
  endfacet
  facet normal 0 0 1
    outer loop
      vertex 4.24257 9.43729 3
      vertex 4.5 7.5 3
      vertex 5.00013 8.98323 3
    endloop
  endfacet
  facet normal 0 0 1
    outer loop
      vertex 3.44415 9.81492 3
      vertex 4.5 7.5 3
      vertex 4.24257 9.43729 3
    endloop
  endfacet
  facet normal 0 0 1
    outer loop
      vertex 2.61256 10.1125 3
      vertex 4.5 7.5 3
      vertex 3.44415 9.81492 3
    endloop
  endfacet
  facet normal 0 0 1
    outer loop
      vertex 1.75581 10.3271 3
      vertex 4.5 7.5 3
      vertex 2.61256 10.1125 3
    endloop
  endfacet
  facet normal 0 0 1
    outer loop
      vertex 0.882154 10.4567 3
      vertex 4.5 7.5 3
      vertex 1.75581 10.3271 3
    endloop
  endfacet
  facet normal 0 0 1
    outer loop
      vertex 0 10.5 3
      vertex 4.5 7.5 3
      vertex 0.882154 10.4567 3
    endloop
  endfacet
  facet normal 0 0 1
    outer loop
      vertex -4.5 7.5 3
      vertex 0 10.5 3
      vertex -0.882154 10.4567 3
    endloop
  endfacet
  facet normal 0 0 1
    outer loop
      vertex -4.5 7.5 3
      vertex -0.882154 10.4567 3
      vertex -1.75581 10.3271 3
    endloop
  endfacet
  facet normal 0 0 1
    outer loop
      vertex -4.5 7.5 3
      vertex -1.75581 10.3271 3
      vertex -2.61256 10.1125 3
    endloop
  endfacet
  facet normal 0 0 1
    outer loop
      vertex -4.5 7.5 3
      vertex -2.61256 10.1125 3
      vertex -3.44415 9.81492 3
    endloop
  endfacet
  facet normal 0 0 1
    outer loop
      vertex -4.5 7.5 3
      vertex -3.44415 9.81492 3
      vertex -4.24257 9.43729 3
    endloop
  endfacet
  facet normal 0 0 1
    outer loop
      vertex 0 10.5 3
      vertex -4.5 7.5 3
      vertex 4.5 7.5 3
    endloop
  endfacet
  facet normal -0 0 1
    outer loop
      vertex -5.70954 8.45709 3
      vertex -4.5 7.5 3
      vertex -5.00013 8.98323 3
    endloop
  endfacet
  facet normal -0 0 1
    outer loop
      vertex -5.00013 8.98323 3
      vertex -4.5 7.5 3
      vertex -4.24257 9.43729 3
    endloop
  endfacet
  facet normal 0 0 1
    outer loop
      vertex 8 0.799999 3
      vertex 9 1.5 3
      vertex 8.95666 2.38215 3
    endloop
  endfacet
  facet normal 0 0 1
    outer loop
      vertex 8 0.799999 3
      vertex 8.95666 2.38215 3
      vertex 8.82707 3.25581 3
    endloop
  endfacet
  facet normal 0 0 1
    outer loop
      vertex 9 1.5 3
      vertex 8 0.799999 3
      vertex 8.95666 0.617846 3
    endloop
  endfacet
  facet normal -0 0 1
    outer loop
      vertex 4.25 3.9 3
      vertex 8.82707 3.25581 3
      vertex 8.61246 4.11256 3
    endloop
  endfacet
  facet normal 0 0 1
    outer loop
      vertex 8.95666 0.617846 3
      vertex 8 0.799999 3
      vertex 8.82707 -0.255813 3
    endloop
  endfacet
  facet normal 0 0 1
    outer loop
      vertex 4.25 3.9 3
      vertex 8.61246 4.11256 3
      vertex 8.31492 4.94415 3
    endloop
  endfacet
  facet normal 0 0 1
    outer loop
      vertex 8 -1.3 3
      vertex 8.82707 -0.255813 3
      vertex 8 0.799999 3
    endloop
  endfacet
  facet normal 0 0 1
    outer loop
      vertex 8.82707 -0.255813 3
      vertex 8 -1.3 3
      vertex 8.61246 -1.11256 3
    endloop
  endfacet
  facet normal -0 0 1
    outer loop
      vertex 4.5 5.1 3
      vertex 8.31492 4.94415 3
      vertex 7.93729 5.74257 3
    endloop
  endfacet
  facet normal 0 0 1
    outer loop
      vertex 4.5 5.1 3
      vertex 7.93729 5.74257 3
      vertex 7.48323 6.50013 3
    endloop
  endfacet
  facet normal 0 0 1
    outer loop
      vertex 4.5 5.1 3
      vertex 7.48323 6.50013 3
      vertex 6.95709 7.20954 3
    endloop
  endfacet
  facet normal -0 0 1
    outer loop
      vertex 4.5 7.5 3
      vertex 6.95709 7.20954 3
      vertex 6.36396 7.86396 3
    endloop
  endfacet
  facet normal 0 0 1
    outer loop
      vertex 4.5 7.5 3
      vertex 6.36396 7.86396 3
      vertex 5.70954 8.45709 3
    endloop
  endfacet
  facet normal 0 0 1
    outer loop
      vertex 4.5 7.5 3
      vertex 5.70954 8.45709 3
      vertex 5.00013 8.98323 3
    endloop
  endfacet
  facet normal 0 0 1
    outer loop
      vertex 6.95709 7.20954 3
      vertex 4.5 7.5 3
      vertex 4.5 5.1 3
    endloop
  endfacet
  facet normal 0 0 1
    outer loop
      vertex 8.31492 4.94415 3
      vertex 4.5 5.1 3
      vertex 4.25 3.9 3
    endloop
  endfacet
  facet normal 0 0 1
    outer loop
      vertex 8.82707 3.25581 3
      vertex 4.25 3.9 3
      vertex 8 0.799999 3
    endloop
  endfacet
  facet normal 0 0 1
    outer loop
      vertex 8 0.799999 3
      vertex 4.25 3.9 3
      vertex 4.25 0.799999 3
    endloop
  endfacet
  facet normal 0 0 1
    outer loop
      vertex 8.61246 -1.11256 3
      vertex 8 -1.3 3
      vertex 8.31492 -1.94415 3
    endloop
  endfacet
  facet normal 0 0 1
    outer loop
      vertex 7.5 -2.25 3
      vertex 8.31492 -1.94415 3
      vertex 8 -1.3 3
    endloop
  endfacet
  facet normal 0 0 1
    outer loop
      vertex 8.31492 -1.94415 3
      vertex 7.5 -2.25 3
      vertex 7.93729 -2.74257 3
    endloop
  endfacet
  facet normal -0 0 1
    outer loop
      vertex 1 -1.3 3
      vertex 7.5 -2.25 3
      vertex 8 -1.3 3
    endloop
  endfacet
  facet normal 0 0 1
    outer loop
      vertex -1 -1.3 3
      vertex 1 -1.3 3
      vertex -1 -0.799999 3
    endloop
  endfacet
  facet normal -0 0 1
    outer loop
      vertex -1 -1.3 3
      vertex 7.5 -2.25 3
      vertex 1 -1.3 3
    endloop
  endfacet
  facet normal 0 0 1
    outer loop
      vertex -1 -1.3 3
      vertex -7.5 -2.25 3
      vertex 7.5 -2.25 3
    endloop
  endfacet
  facet normal 0 0 1
    outer loop
      vertex -7.5 -2.25 3
      vertex -7.93729 -2.74257 3
      vertex -7.5 -2.75 3
    endloop
  endfacet
  facet normal -0 0 1
    outer loop
      vertex -8 -1.3 3
      vertex -7.5 -2.25 3
      vertex -1 -1.3 3
    endloop
  endfacet
  facet normal -0 0 1
    outer loop
      vertex -8.31492 -1.94415 3
      vertex -7.5 -2.25 3
      vertex -8 -1.3 3
    endloop
  endfacet
  facet normal 0 0 1
    outer loop
      vertex -4.25 3.9 3
      vertex -8 0.799999 3
      vertex -4.25 0.799999 3
    endloop
  endfacet
  facet normal 0 0 1
    outer loop
      vertex -7.5 -2.25 3
      vertex -8.31492 -1.94415 3
      vertex -7.93729 -2.74257 3
    endloop
  endfacet
  facet normal -0 0 1
    outer loop
      vertex -8.95666 2.38215 3
      vertex -8 0.799999 3
      vertex -8.82707 3.25581 3
    endloop
  endfacet
  facet normal 0 0 1
    outer loop
      vertex -8 -1.3 3
      vertex -8.61246 -1.11256 3
      vertex -8.31492 -1.94415 3
    endloop
  endfacet
  facet normal -0 0 1
    outer loop
      vertex -9 1.5 3
      vertex -8 0.799999 3
      vertex -8.95666 2.38215 3
    endloop
  endfacet
  facet normal 0 0 1
    outer loop
      vertex -8 -1.3 3
      vertex -8.82707 -0.255813 3
      vertex -8.61246 -1.11256 3
    endloop
  endfacet
  facet normal 0 -0 1
    outer loop
      vertex -8.95666 0.617846 3
      vertex -8 0.799999 3
      vertex -9 1.5 3
    endloop
  endfacet
  facet normal 0 0 1
    outer loop
      vertex -8 0.799999 3
      vertex -8.82707 -0.255813 3
      vertex -8 -1.3 3
    endloop
  endfacet
  facet normal 0 -0 1
    outer loop
      vertex -8.82707 -0.255813 3
      vertex -8 0.799999 3
      vertex -8.95666 0.617846 3
    endloop
  endfacet
  facet normal 0 0 1
    outer loop
      vertex 7.5 -2.75 3
      vertex 7.93729 -2.74257 3
      vertex 7.5 -2.25 3
    endloop
  endfacet
  facet normal -0 0 1
    outer loop
      vertex 7.5 -2.75 3
      vertex 7.48323 -3.50013 3
      vertex 7.93729 -2.74257 3
    endloop
  endfacet
  facet normal 0 0 1
    outer loop
      vertex 7.5 -2.75 3
      vertex 6.95709 -4.20954 3
      vertex 7.48323 -3.50013 3
    endloop
  endfacet
  facet normal 0 0 1
    outer loop
      vertex 7.5 -2.75 3
      vertex 6.36396 -4.86396 3
      vertex 6.95709 -4.20954 3
    endloop
  endfacet
  facet normal 0 0 1
    outer loop
      vertex 7.5 -2.75 3
      vertex 5.70954 -5.45709 3
      vertex 6.36396 -4.86396 3
    endloop
  endfacet
  facet normal 0 0 1
    outer loop
      vertex 7.5 -2.75 3
      vertex 5.00013 -5.98323 3
      vertex 5.70954 -5.45709 3
    endloop
  endfacet
  facet normal 0 0 1
    outer loop
      vertex 7.5 -2.75 3
      vertex 4.24257 -6.43729 3
      vertex 5.00013 -5.98323 3
    endloop
  endfacet
  facet normal 0 0 1
    outer loop
      vertex 7.5 -2.75 3
      vertex 3.44415 -6.81492 3
      vertex 4.24257 -6.43729 3
    endloop
  endfacet
  facet normal 0 0 1
    outer loop
      vertex 7.5 -2.75 3
      vertex 2.61256 -7.11246 3
      vertex 3.44415 -6.81492 3
    endloop
  endfacet
  facet normal 0 0 1
    outer loop
      vertex 7.5 -2.75 3
      vertex 1.75581 -7.32707 3
      vertex 2.61256 -7.11246 3
    endloop
  endfacet
  facet normal 0 0 1
    outer loop
      vertex 7.5 -2.75 3
      vertex 0.882154 -7.45666 3
      vertex 1.75581 -7.32707 3
    endloop
  endfacet
  facet normal 0 0 1
    outer loop
      vertex 7.5 -2.75 3
      vertex 0 -7.5 3
      vertex 0.882154 -7.45666 3
    endloop
  endfacet
  facet normal 0 0 1
    outer loop
      vertex 7.5 -2.75 3
      vertex -0.882154 -7.45666 3
      vertex 0 -7.5 3
    endloop
  endfacet
  facet normal -0 0 1
    outer loop
      vertex -7.5 -2.75 3
      vertex -0.882154 -7.45666 3
      vertex 7.5 -2.75 3
    endloop
  endfacet
  facet normal 0 0 1
    outer loop
      vertex -0.882154 -7.45666 3
      vertex -7.5 -2.75 3
      vertex -1.75581 -7.32707 3
    endloop
  endfacet
  facet normal 0 0 1
    outer loop
      vertex -1.75581 -7.32707 3
      vertex -7.5 -2.75 3
      vertex -2.61256 -7.11246 3
    endloop
  endfacet
  facet normal 0 0 1
    outer loop
      vertex -2.61256 -7.11246 3
      vertex -7.5 -2.75 3
      vertex -3.44415 -6.81492 3
    endloop
  endfacet
  facet normal 0 0 1
    outer loop
      vertex -3.44415 -6.81492 3
      vertex -7.5 -2.75 3
      vertex -4.24257 -6.43729 3
    endloop
  endfacet
  facet normal 0 0 1
    outer loop
      vertex -4.24257 -6.43729 3
      vertex -7.5 -2.75 3
      vertex -5.00013 -5.98323 3
    endloop
  endfacet
  facet normal 0 0 1
    outer loop
      vertex -5.00013 -5.98323 3
      vertex -7.5 -2.75 3
      vertex -5.70954 -5.45709 3
    endloop
  endfacet
  facet normal 0 0 1
    outer loop
      vertex -5.70954 -5.45709 3
      vertex -7.5 -2.75 3
      vertex -6.36396 -4.86396 3
    endloop
  endfacet
  facet normal 0 0 1
    outer loop
      vertex -6.36396 -4.86396 3
      vertex -7.5 -2.75 3
      vertex -6.95709 -4.20954 3
    endloop
  endfacet
  facet normal 0 0 1
    outer loop
      vertex -6.95709 -4.20954 3
      vertex -7.5 -2.75 3
      vertex -7.48323 -3.50013 3
    endloop
  endfacet
  facet normal 0 0 1
    outer loop
      vertex -7.48323 -3.50013 3
      vertex -7.5 -2.75 3
      vertex -7.93729 -2.74257 3
    endloop
  endfacet
  facet normal -0.699876 0.103821 0.706679
    outer loop
      vertex -9.80785 3.4509 2
      vertex -9.95185 2.48017 2
      vertex -8.82707 3.25581 3
    endloop
  endfacet
  facet normal -0.989176 0.146736 0
    outer loop
      vertex -9.95185 2.48017 0
      vertex -9.80785 3.4509 2
      vertex -9.80785 3.4509 0
    endloop
  endfacet
  facet normal -0.989176 0.146736 0
    outer loop
      vertex -9.80785 3.4509 2
      vertex -9.95185 2.48017 0
      vertex -9.95185 2.48017 2
    endloop
  endfacet
  facet normal -0.475148 0.524247 0.706682
    outer loop
      vertex -5.70954 8.45709 3
      vertex -7.07107 8.57107 2
      vertex -6.36396 7.86396 3
    endloop
  endfacet
  facet normal -0.524247 0.475148 0.706682
    outer loop
      vertex -6.36396 7.86396 3
      vertex -7.07107 8.57107 2
      vertex -6.95709 7.20954 3
    endloop
  endfacet
  facet normal -0.568293 0.421481 0.70668
    outer loop
      vertex -7.7301 7.84393 2
      vertex -8.3147 7.0557 2
      vertex -7.48323 6.50013 3
    endloop
  endfacet
  facet normal -0.606872 0.363743 0.706681
    outer loop
      vertex -8.3147 7.0557 2
      vertex -8.81921 6.21397 2
      vertex -7.93729 5.74257 3
    endloop
  endfacet
  facet normal -0.666176 -0.238355 0.70668
    outer loop
      vertex -8.61246 -1.11256 3
      vertex -9.2388 -2.32683 2
      vertex -8.31492 -1.94415 3
    endloop
  endfacet
  facet normal -0.302513 -0.639601 0.70668
    outer loop
      vertex -3.44415 -6.81492 3
      vertex -4.24257 -6.43729 3
      vertex -3.82683 -7.7388 2
    endloop
  endfacet
  facet normal -0.302512 -0.639601 0.706681
    outer loop
      vertex -4.24257 -6.43729 3
      vertex -4.71397 -7.31921 2
      vertex -3.82683 -7.7388 2
    endloop
  endfacet
  facet normal -0.524252 -0.475146 0.70668
    outer loop
      vertex -6.95709 -4.20954 3
      vertex -7.7301 -4.84393 2
      vertex -7.07107 -5.57107 2
    endloop
  endfacet
  facet normal -0.606873 -0.363742 0.706681
    outer loop
      vertex -7.93729 -2.74257 3
      vertex -8.3147 -4.0557 2
      vertex -7.48323 -3.50013 3
    endloop
  endfacet
  facet normal -0.699873 -0.103812 0.706683
    outer loop
      vertex -8.95666 0.617846 3
      vertex -9.95185 0.519828 2
      vertex -8.82707 -0.255813 3
    endloop
  endfacet
  facet normal -0.606872 -0.363743 0.706681
    outer loop
      vertex -7.93729 -2.74257 3
      vertex -8.81921 -3.21397 2
      vertex -8.3147 -4.0557 2
    endloop
  endfacet
  facet normal -0.5141 -0.85773 0
    outer loop
      vertex -5.5557 -6.8147 0
      vertex -4.71397 -7.31921 2
      vertex -5.5557 -6.8147 2
    endloop
  endfacet
  facet normal -0.5141 -0.85773 -0
    outer loop
      vertex -4.71397 -7.31921 2
      vertex -5.5557 -6.8147 0
      vertex -4.71397 -7.31921 0
    endloop
  endfacet
  facet normal 0.336885 0.941546 -0
    outer loop
      vertex 3.82683 10.7388 0
      vertex 2.90285 11.0694 2
      vertex 3.82683 10.7388 2
    endloop
  endfacet
  facet normal 0.336885 0.941546 0
    outer loop
      vertex 2.90285 11.0694 2
      vertex 3.82683 10.7388 0
      vertex 2.90285 11.0694 0
    endloop
  endfacet
  facet normal 0.171912 0.686325 0.706686
    outer loop
      vertex 1.9509 11.3079 2
      vertex 1.75581 10.3271 3
      vertex 2.61256 10.1125 3
    endloop
  endfacet
  facet normal 0.10375 0.699881 0.706684
    outer loop
      vertex 1.9509 11.3079 2
      vertex 0.980171 11.4518 2
      vertex 1.75581 10.3271 3
    endloop
  endfacet
  facet normal 0.302513 0.639601 0.70668
    outer loop
      vertex 3.82683 10.7388 2
      vertex 3.44415 9.81492 3
      vertex 4.24257 9.43729 3
    endloop
  endfacet
  facet normal -0.146637 0.98919 0
    outer loop
      vertex -0.980171 11.4518 0
      vertex -1.9509 11.3079 2
      vertex -0.980171 11.4518 2
    endloop
  endfacet
  facet normal -0.146637 0.98919 0
    outer loop
      vertex -1.9509 11.3079 2
      vertex -0.980171 11.4518 0
      vertex -1.9509 11.3079 0
    endloop
  endfacet
  facet normal -0.0491157 0.998793 0
    outer loop
      vertex 0 11.5 0
      vertex -0.980171 11.4518 2
      vertex 0 11.5 2
    endloop
  endfacet
  facet normal -0.0491157 0.998793 0
    outer loop
      vertex -0.980171 11.4518 2
      vertex 0 11.5 0
      vertex -0.980171 11.4518 0
    endloop
  endfacet
  facet normal -0.336885 0.941546 0
    outer loop
      vertex -2.90285 11.0694 0
      vertex -3.82683 10.7388 2
      vertex -2.90285 11.0694 2
    endloop
  endfacet
  facet normal -0.336885 0.941546 0
    outer loop
      vertex -3.82683 10.7388 2
      vertex -2.90285 11.0694 0
      vertex -3.82683 10.7388 0
    endloop
  endfacet
  facet normal 0.666174 -0.238357 0.706681
    outer loop
      vertex 9.5694 -1.40285 2
      vertex 8.61246 -1.11256 3
      vertex 9.2388 -2.32683 2
    endloop
  endfacet
  facet normal 0.686329 -0.171916 0.706681
    outer loop
      vertex 9.80785 -0.450903 2
      vertex 8.61246 -1.11256 3
      vertex 9.5694 -1.40285 2
    endloop
  endfacet
  facet normal 0.568294 -0.42148 0.70668
    outer loop
      vertex 7.48323 -3.50013 3
      vertex 6.95709 -4.20954 3
      vertex 7.7301 -4.84393 2
    endloop
  endfacet
  facet normal 0.639601 -0.302512 0.706681
    outer loop
      vertex 9.2388 -2.32683 2
      vertex 7.93729 -2.74257 3
      vertex 8.81921 -3.21397 2
    endloop
  endfacet
  facet normal 0.639601 -0.302513 0.70668
    outer loop
      vertex 8.31492 -1.94415 3
      vertex 7.93729 -2.74257 3
      vertex 9.2388 -2.32683 2
    endloop
  endfacet
  facet normal 0.238357 -0.666174 0.706681
    outer loop
      vertex 3.82683 -7.7388 2
      vertex 2.61256 -7.11246 3
      vertex 2.90285 -8.0694 2
    endloop
  endfacet
  facet normal 0.238355 -0.666176 0.70668
    outer loop
      vertex 3.44415 -6.81492 3
      vertex 2.61256 -7.11246 3
      vertex 3.82683 -7.7388 2
    endloop
  endfacet
  facet normal -0.171916 -0.686329 0.706681
    outer loop
      vertex -2.61256 -7.11246 3
      vertex -2.90285 -8.0694 2
      vertex -1.9509 -8.30785 2
    endloop
  endfacet
  facet normal -0.103813 -0.699873 0.706682
    outer loop
      vertex -0.882154 -7.45666 3
      vertex -1.75581 -7.32707 3
      vertex -0.980171 -8.45185 2
    endloop
  endfacet
  facet normal 0.595705 -0.803203 0
    outer loop
      vertex 5.5557 -6.8147 0
      vertex 6.34393 -6.2301 2
      vertex 5.5557 -6.8147 2
    endloop
  endfacet
  facet normal 0.595705 -0.803203 0
    outer loop
      vertex 6.34393 -6.2301 2
      vertex 5.5557 -6.8147 0
      vertex 6.34393 -6.2301 0
    endloop
  endfacet
  facet normal 0.363742 -0.606873 0.706681
    outer loop
      vertex 5.00013 -5.98323 3
      vertex 4.24257 -6.43729 3
      vertex 5.5557 -6.8147 2
    endloop
  endfacet
  facet normal -0.699873 0.103812 0.706683
    outer loop
      vertex -8.82707 3.25581 3
      vertex -9.95185 2.48017 2
      vertex -8.95666 2.38215 3
    endloop
  endfacet
  facet normal -0.706678 0.0347191 0.706682
    outer loop
      vertex -8.95666 2.38215 3
      vertex -9.95185 2.48017 2
      vertex -9 1.5 3
    endloop
  endfacet
  facet normal -0.639601 0.302513 0.70668
    outer loop
      vertex -7.93729 5.74257 3
      vertex -9.2388 5.32683 2
      vertex -8.31492 4.94415 3
    endloop
  endfacet
  facet normal -0.666174 0.238357 0.706681
    outer loop
      vertex -9.2388 5.32683 2
      vertex -9.5694 4.40285 2
      vertex -8.61246 4.11256 3
    endloop
  endfacet
  facet normal -0.686329 0.171916 0.706681
    outer loop
      vertex -9.5694 4.40285 2
      vertex -9.80785 3.4509 2
      vertex -8.61246 4.11256 3
    endloop
  endfacet
  facet normal -0.639601 0.302512 0.706681
    outer loop
      vertex -8.81921 6.21397 2
      vertex -9.2388 5.32683 2
      vertex -7.93729 5.74257 3
    endloop
  endfacet
  facet normal -0.85773 0.5141 0
    outer loop
      vertex -8.81921 6.21397 0
      vertex -8.3147 7.0557 2
      vertex -8.3147 7.0557 0
    endloop
  endfacet
  facet normal -0.85773 0.5141 0
    outer loop
      vertex -8.3147 7.0557 2
      vertex -8.81921 6.21397 0
      vertex -8.81921 6.21397 2
    endloop
  endfacet
  facet normal -0.803203 0.595705 0
    outer loop
      vertex -8.3147 7.0557 0
      vertex -7.7301 7.84393 2
      vertex -7.7301 7.84393 0
    endloop
  endfacet
  facet normal -0.803203 0.595705 0
    outer loop
      vertex -7.7301 7.84393 2
      vertex -8.3147 7.0557 0
      vertex -8.3147 7.0557 2
    endloop
  endfacet
  facet normal -0.475146 0.524252 0.70668
    outer loop
      vertex -6.34393 9.2301 2
      vertex -7.07107 8.57107 2
      vertex -5.70954 8.45709 3
    endloop
  endfacet
  facet normal -0.42148 0.568294 0.70668
    outer loop
      vertex -5.00013 8.98323 3
      vertex -6.34393 9.2301 2
      vertex -5.70954 8.45709 3
    endloop
  endfacet
  facet normal -0.363742 0.606873 0.706681
    outer loop
      vertex -4.24257 9.43729 3
      vertex -5.5557 9.8147 2
      vertex -5.00013 8.98323 3
    endloop
  endfacet
  facet normal -0.427567 0.903984 0
    outer loop
      vertex -3.82683 10.7388 0
      vertex -4.71397 10.3192 2
      vertex -3.82683 10.7388 2
    endloop
  endfacet
  facet normal -0.427567 0.903984 0
    outer loop
      vertex -4.71397 10.3192 2
      vertex -3.82683 10.7388 0
      vertex -4.71397 10.3192 0
    endloop
  endfacet
  facet normal -0.941546 -0.336885 0
    outer loop
      vertex -9.2388 -2.32683 0
      vertex -9.5694 -1.40285 2
      vertex -9.5694 -1.40285 0
    endloop
  endfacet
  facet normal -0.941546 -0.336885 0
    outer loop
      vertex -9.5694 -1.40285 2
      vertex -9.2388 -2.32683 0
      vertex -9.2388 -2.32683 2
    endloop
  endfacet
  facet normal -0.68633 -0.171921 0.706679
    outer loop
      vertex -8.82707 -0.255813 3
      vertex -9.80785 -0.450903 2
      vertex -8.61246 -1.11256 3
    endloop
  endfacet
  facet normal -0.803203 -0.595705 0
    outer loop
      vertex -7.7301 -4.84393 0
      vertex -8.3147 -4.0557 2
      vertex -8.3147 -4.0557 0
    endloop
  endfacet
  facet normal -0.803203 -0.595705 0
    outer loop
      vertex -8.3147 -4.0557 2
      vertex -7.7301 -4.84393 0
      vertex -7.7301 -4.84393 2
    endloop
  endfacet
  facet normal -0.699876 -0.103821 0.706679
    outer loop
      vertex -8.82707 -0.255813 3
      vertex -9.95185 0.519828 2
      vertex -9.80785 -0.450903 2
    endloop
  endfacet
  facet normal -0.686329 -0.171916 0.706681
    outer loop
      vertex -8.61246 -1.11256 3
      vertex -9.80785 -0.450903 2
      vertex -9.5694 -1.40285 2
    endloop
  endfacet
  facet normal -0.666174 -0.238357 0.706681
    outer loop
      vertex -8.61246 -1.11256 3
      vertex -9.5694 -1.40285 2
      vertex -9.2388 -2.32683 2
    endloop
  endfacet
  facet normal -0.706678 -0.0347189 0.706682
    outer loop
      vertex -9 1.5 3
      vertex -9.95185 0.519828 2
      vertex -8.95666 0.617846 3
    endloop
  endfacet
  facet normal -0.568293 -0.421481 0.70668
    outer loop
      vertex -7.48323 -3.50013 3
      vertex -8.3147 -4.0557 2
      vertex -7.7301 -4.84393 2
    endloop
  endfacet
  facet normal -0.568294 -0.42148 0.70668
    outer loop
      vertex -7.48323 -3.50013 3
      vertex -7.7301 -4.84393 2
      vertex -6.95709 -4.20954 3
    endloop
  endfacet
  facet normal -0.034751 0.70668 0.70668
    outer loop
      vertex 0 11.5 2
      vertex -0.980171 11.4518 2
      vertex 0 10.5 3
    endloop
  endfacet
  facet normal -0.171912 0.686325 0.706686
    outer loop
      vertex -1.9509 11.3079 2
      vertex -2.61256 10.1125 3
      vertex -1.75581 10.3271 3
    endloop
  endfacet
  facet normal 0.524247 0.475148 0.706682
    outer loop
      vertex 7.07107 8.57107 2
      vertex 6.36396 7.86396 3
      vertex 6.95709 7.20954 3
    endloop
  endfacet
  facet normal 0.475148 0.524247 0.706682
    outer loop
      vertex 7.07107 8.57107 2
      vertex 5.70954 8.45709 3
      vertex 6.36396 7.86396 3
    endloop
  endfacet
  facet normal 0.524247 -0.475148 0.706682
    outer loop
      vertex 6.95709 -4.20954 3
      vertex 6.36396 -4.86396 3
      vertex 7.07107 -5.57107 2
    endloop
  endfacet
  facet normal 0.524252 -0.475146 0.70668
    outer loop
      vertex 7.7301 -4.84393 2
      vertex 6.95709 -4.20954 3
      vertex 7.07107 -5.57107 2
    endloop
  endfacet
  facet normal 0.103821 -0.699876 0.706679
    outer loop
      vertex 1.75581 -7.32707 3
      vertex 0.980171 -8.45185 2
      vertex 1.9509 -8.30785 2
    endloop
  endfacet
  facet normal 0.171921 -0.68633 0.706679
    outer loop
      vertex 2.61256 -7.11246 3
      vertex 1.75581 -7.32707 3
      vertex 1.9509 -8.30785 2
    endloop
  endfacet
  facet normal -0.238361 0.666186 0.706668
    outer loop
      vertex -2.90285 11.0694 2
      vertex -3.82683 10.7388 2
      vertex -2.61256 10.1125 3
    endloop
  endfacet
  facet normal -0.171953 0.686333 0.706668
    outer loop
      vertex -1.9509 11.3079 2
      vertex -2.90285 11.0694 2
      vertex -2.61256 10.1125 3
    endloop
  endfacet
  facet normal -0.238383 0.666165 0.706681
    outer loop
      vertex -2.61256 10.1125 3
      vertex -3.82683 10.7388 2
      vertex -3.44415 9.81492 3
    endloop
  endfacet
  facet normal -0.302519 0.639601 0.706678
    outer loop
      vertex -3.82683 10.7388 2
      vertex -4.71397 10.3192 2
      vertex -4.24257 9.43729 3
    endloop
  endfacet
  facet normal -0.0346886 0.706713 0.70665
    outer loop
      vertex 0 10.5 3
      vertex -0.980171 11.4518 2
      vertex -0.882154 10.4567 3
    endloop
  endfacet
  facet normal -0.302513 0.639601 0.70668
    outer loop
      vertex -3.82683 10.7388 2
      vertex -4.24257 9.43729 3
      vertex -3.44415 9.81492 3
    endloop
  endfacet
  facet normal 0.0346886 0.706713 0.70665
    outer loop
      vertex 0.980171 11.4518 2
      vertex 0 10.5 3
      vertex 0.882154 10.4567 3
    endloop
  endfacet
  facet normal 0.034751 0.70668 0.70668
    outer loop
      vertex 0 11.5 2
      vertex 0 10.5 3
      vertex 0.980171 11.4518 2
    endloop
  endfacet
  facet normal -0.103825 0.699904 0.706651
    outer loop
      vertex -0.980171 11.4518 2
      vertex -1.75581 10.3271 3
      vertex -0.882154 10.4567 3
    endloop
  endfacet
  facet normal -0.10375 0.699881 0.706684
    outer loop
      vertex -0.980171 11.4518 2
      vertex -1.9509 11.3079 2
      vertex -1.75581 10.3271 3
    endloop
  endfacet
  facet normal 0 -1 0
    outer loop
      vertex -6.5 0.799999 0.25
      vertex -8 0.799999 3
      vertex -8 0.799999 0.25
    endloop
  endfacet
  facet normal 0 -1 0
    outer loop
      vertex -8 0.799999 3
      vertex -6.5 0.799999 0.25
      vertex -4.25 0.799999 3
    endloop
  endfacet
  facet normal 0 -1 0
    outer loop
      vertex -4.25 0.799999 0
      vertex -6.5 0.799999 0.25
      vertex -6.5 0.799999 0
    endloop
  endfacet
  facet normal 0 -1 0
    outer loop
      vertex -6.5 0.799999 0.25
      vertex -4.25 0.799999 0
      vertex -4.25 0.799999 3
    endloop
  endfacet
  facet normal 0 -1 0
    outer loop
      vertex 4.25 0.799999 3
      vertex 6.5 0.799999 0.25
      vertex 8 0.799999 3
    endloop
  endfacet
  facet normal 0 -1 0
    outer loop
      vertex 4.25 0.799999 0
      vertex 6.5 0.799999 0.25
      vertex 4.25 0.799999 3
    endloop
  endfacet
  facet normal 0 -1 -0
    outer loop
      vertex 6.5 0.799999 0.25
      vertex 4.25 0.799999 0
      vertex 6.5 0.799999 0
    endloop
  endfacet
  facet normal 0 -1 -0
    outer loop
      vertex 8 0.799999 3
      vertex 6.5 0.799999 0.25
      vertex 8 0.799999 0.25
    endloop
  endfacet
  facet normal 0 1 -0
    outer loop
      vertex 1 -0.799999 0
      vertex -1 -0.799999 3
      vertex 1 -0.799999 3
    endloop
  endfacet
  facet normal 0 1 0
    outer loop
      vertex -1 -0.799999 3
      vertex 1 -0.799999 0
      vertex -1 -0.799999 0
    endloop
  endfacet
  facet normal 1 -0 0
    outer loop
      vertex -4.25 0.799999 3
      vertex -4.25 3.9 0
      vertex -4.25 3.9 3
    endloop
  endfacet
  facet normal 1 0 0
    outer loop
      vertex -4.25 3.9 0
      vertex -4.25 0.799999 3
      vertex -4.25 0.799999 0
    endloop
  endfacet
  facet normal -1 0 0
    outer loop
      vertex 4.25 0.799999 0
      vertex 4.25 3.9 3
      vertex 4.25 3.9 0
    endloop
  endfacet
  facet normal -1 -0 0
    outer loop
      vertex 4.25 3.9 3
      vertex 4.25 0.799999 0
      vertex 4.25 0.799999 3
    endloop
  endfacet
  facet normal 0 -1 0
    outer loop
      vertex -4.25 3.9 0
      vertex 4.25 3.9 3
      vertex -4.25 3.9 3
    endloop
  endfacet
  facet normal 0 -1 -0
    outer loop
      vertex 4.25 3.9 3
      vertex -4.25 3.9 0
      vertex 4.25 3.9 0
    endloop
  endfacet
  facet normal 1 -0 0
    outer loop
      vertex -7.5 -2.75 3
      vertex -7.5 -2.25 0
      vertex -7.5 -2.25 3
    endloop
  endfacet
  facet normal 1 0 0
    outer loop
      vertex -7.5 -2.25 0
      vertex -7.5 -2.75 3
      vertex -7.5 -2.75 0
    endloop
  endfacet
  facet normal -1 0 0
    outer loop
      vertex 7.5 -2.75 0
      vertex 7.5 -2.25 3
      vertex 7.5 -2.25 0
    endloop
  endfacet
  facet normal -1 -0 0
    outer loop
      vertex 7.5 -2.25 3
      vertex 7.5 -2.75 0
      vertex 7.5 -2.75 3
    endloop
  endfacet
  facet normal 0 1 -0
    outer loop
      vertex 7.5 -2.75 0
      vertex -7.5 -2.75 3
      vertex 7.5 -2.75 3
    endloop
  endfacet
  facet normal 0 1 0
    outer loop
      vertex -7.5 -2.75 3
      vertex 7.5 -2.75 0
      vertex -7.5 -2.75 0
    endloop
  endfacet
  facet normal 0 -1 0
    outer loop
      vertex -7.5 -2.25 0
      vertex 7.5 -2.25 3
      vertex -7.5 -2.25 3
    endloop
  endfacet
  facet normal 0 -1 -0
    outer loop
      vertex 7.5 -2.25 3
      vertex -7.5 -2.25 0
      vertex 7.5 -2.25 0
    endloop
  endfacet
  facet normal 1 -0 0
    outer loop
      vertex -4.5 5.1 3
      vertex -4.5 7.5 0.25
      vertex -4.5 7.5 3
    endloop
  endfacet
  facet normal 1 0 0
    outer loop
      vertex -4.5 7.5 0.25
      vertex -4.5 5.1 3
      vertex -4.5 5.1 0.25
    endloop
  endfacet
  facet normal -1 0 0
    outer loop
      vertex 4.5 5.1 0.25
      vertex 4.5 7.5 3
      vertex 4.5 7.5 0.25
    endloop
  endfacet
  facet normal -1 -0 0
    outer loop
      vertex 4.5 7.5 3
      vertex 4.5 5.1 0.25
      vertex 4.5 5.1 3
    endloop
  endfacet
  facet normal -0 0 1
    outer loop
      vertex -4.5 7.5 0.25
      vertex 4.5 5.1 0.25
      vertex 4.5 7.5 0.25
    endloop
  endfacet
  facet normal 0 0 1
    outer loop
      vertex 4.5 5.1 0.25
      vertex -4.5 7.5 0.25
      vertex -4.5 5.1 0.25
    endloop
  endfacet
  facet normal 0 1 -0
    outer loop
      vertex 4.5 5.1 0.25
      vertex -4.5 5.1 3
      vertex 4.5 5.1 3
    endloop
  endfacet
  facet normal 0 1 0
    outer loop
      vertex -4.5 5.1 3
      vertex 4.5 5.1 0.25
      vertex -4.5 5.1 0.25
    endloop
  endfacet
  facet normal 0 -1 0
    outer loop
      vertex -4.5 7.5 0.25
      vertex 4.5 7.5 3
      vertex -4.5 7.5 3
    endloop
  endfacet
  facet normal 0 -1 -0
    outer loop
      vertex 4.5 7.5 3
      vertex -4.5 7.5 0.25
      vertex 4.5 7.5 0.25
    endloop
  endfacet
  facet normal -0 0 1
    outer loop
      vertex 6.5 0.799999 0.25
      vertex 8 -1.3 0.25
      vertex 8 0.799999 0.25
    endloop
  endfacet
  facet normal 0 0 1
    outer loop
      vertex 8 -1.3 0.25
      vertex 6.5 0.799999 0.25
      vertex 6.5 -1.3 0.25
    endloop
  endfacet
  facet normal -0 0 1
    outer loop
      vertex -8 0.799999 0.25
      vertex -6.5 -1.3 0.25
      vertex -6.5 0.799999 0.25
    endloop
  endfacet
  facet normal 0 0 1
    outer loop
      vertex -6.5 -1.3 0.25
      vertex -8 0.799999 0.25
      vertex -8 -1.3 0.25
    endloop
  endfacet
  facet normal 1 -0 0
    outer loop
      vertex -6.5 -1.3 0.25
      vertex -6.5 0.799999 0
      vertex -6.5 0.799999 0.25
    endloop
  endfacet
  facet normal 1 0 0
    outer loop
      vertex -6.5 0.799999 0
      vertex -6.5 -1.3 0.25
      vertex -6.5 -1.3 0
    endloop
  endfacet
  facet normal -1 0 0
    outer loop
      vertex 6.5 -1.3 0
      vertex 6.5 0.799999 0.25
      vertex 6.5 0.799999 0
    endloop
  endfacet
  facet normal -1 -0 0
    outer loop
      vertex 6.5 0.799999 0.25
      vertex 6.5 -1.3 0
      vertex 6.5 -1.3 0.25
    endloop
  endfacet
endsolid OpenSCAD_Model
