solid OpenSCAD_Model
  facet normal 0 -1 0
    outer loop
      vertex 10.5 25 3
      vertex 11.3 25 6
      vertex 10.5 25 6
    endloop
  endfacet
  facet normal 0 -1 -0
    outer loop
      vertex 11.3 25 6
      vertex 10.5 25 3
      vertex 11.3 25 3
    endloop
  endfacet
  facet normal -0 0 1
    outer loop
      vertex 10.5 25 3
      vertex 11.3 21 3
      vertex 11.3 25 3
    endloop
  endfacet
  facet normal 0 0 1
    outer loop
      vertex 11.3 21 3
      vertex 10.5 25 3
      vertex 10.5 21 3
    endloop
  endfacet
  facet normal 0 1 -0
    outer loop
      vertex 11.3 21 3
      vertex 10.5 21 6
      vertex 11.3 21 6
    endloop
  endfacet
  facet normal 0 1 0
    outer loop
      vertex 10.5 21 6
      vertex 11.3 21 3
      vertex 10.5 21 3
    endloop
  endfacet
  facet normal -0 0 1
    outer loop
      vertex 10.5 5 3
      vertex 11.3 1 3
      vertex 11.3 5 3
    endloop
  endfacet
  facet normal 0 0 1
    outer loop
      vertex 11.3 1 3
      vertex 10.5 5 3
      vertex 10.5 1 3
    endloop
  endfacet
  facet normal 0 1 -0
    outer loop
      vertex 11.3 1 3
      vertex 10.5 1 6
      vertex 11.3 1 6
    endloop
  endfacet
  facet normal 0 1 0
    outer loop
      vertex 10.5 1 6
      vertex 11.3 1 3
      vertex 10.5 1 3
    endloop
  endfacet
  facet normal 0 -1 0
    outer loop
      vertex 10.5 5 3
      vertex 11.3 5 6
      vertex 10.5 5 6
    endloop
  endfacet
  facet normal 0 -1 -0
    outer loop
      vertex 11.3 5 6
      vertex 10.5 5 3
      vertex 11.3 5 3
    endloop
  endfacet
  facet normal 0 -1 0
    outer loop
      vertex 10.5 -10.75 3
      vertex 11.3 -10.75 6
      vertex 10.5 -10.75 6
    endloop
  endfacet
  facet normal 0 -1 -0
    outer loop
      vertex 11.3 -10.75 6
      vertex 10.5 -10.75 3
      vertex 11.3 -10.75 3
    endloop
  endfacet
  facet normal -0 0 1
    outer loop
      vertex 10.5 -10.75 3
      vertex 11.3 -26.75 3
      vertex 11.3 -10.75 3
    endloop
  endfacet
  facet normal 0 0 1
    outer loop
      vertex 11.3 -26.75 3
      vertex 10.5 -10.75 3
      vertex 10.5 -26.75 3
    endloop
  endfacet
  facet normal 0 1 0
    outer loop
      vertex 10.5 -26.75 3
      vertex 11.3 -26.75 6
      vertex 11.3 -26.75 3
    endloop
  endfacet
  facet normal 0 1 0
    outer loop
      vertex 11.3 -26.75 6
      vertex 10.5 -26.75 3
      vertex 7.5 -26.75 6
    endloop
  endfacet
  facet normal 0 1 0
    outer loop
      vertex 10.5 -26.75 3
      vertex 7.5 -26.75 3
      vertex 7.5 -26.75 6
    endloop
  endfacet
  facet normal 0 1 -0
    outer loop
      vertex 10.5 -26.75 0
      vertex 7.5 -26.75 3
      vertex 10.5 -26.75 3
    endloop
  endfacet
  facet normal 0 1 0
    outer loop
      vertex 7.5 -26.75 3
      vertex 10.5 -26.75 0
      vertex -7.5 -26.75 3
    endloop
  endfacet
  facet normal 0 1 -0
    outer loop
      vertex -7.5 -26.75 3
      vertex -10.5 -26.75 6
      vertex -7.5 -26.75 6
    endloop
  endfacet
  facet normal 0 1 0
    outer loop
      vertex -7.5 -26.75 3
      vertex -10.5 -26.75 0
      vertex -10.5 -26.75 6
    endloop
  endfacet
  facet normal 0 1 0
    outer loop
      vertex -10.5 -26.75 0
      vertex -7.5 -26.75 3
      vertex 10.5 -26.75 0
    endloop
  endfacet
  facet normal -0 0 1
    outer loop
      vertex -11.3 23.25 3
      vertex -10.5 19.25 3
      vertex -10.5 23.25 3
    endloop
  endfacet
  facet normal 0 0 1
    outer loop
      vertex -10.5 19.25 3
      vertex -11.3 23.25 3
      vertex -11.3 19.25 3
    endloop
  endfacet
  facet normal 0 1 -0
    outer loop
      vertex -10.5 19.25 3
      vertex -11.3 19.25 6
      vertex -10.5 19.25 6
    endloop
  endfacet
  facet normal 0 1 0
    outer loop
      vertex -11.3 19.25 6
      vertex -10.5 19.25 3
      vertex -11.3 19.25 3
    endloop
  endfacet
  facet normal 0 -1 0
    outer loop
      vertex -11.3 23.25 3
      vertex -10.5 23.25 6
      vertex -11.3 23.25 6
    endloop
  endfacet
  facet normal 0 -1 -0
    outer loop
      vertex -10.5 23.25 6
      vertex -11.3 23.25 3
      vertex -10.5 23.25 3
    endloop
  endfacet
  facet normal 0 -1 0
    outer loop
      vertex -11.3 4.5 3
      vertex -10.5 4.5 6
      vertex -11.3 4.5 6
    endloop
  endfacet
  facet normal 0 -1 -0
    outer loop
      vertex -10.5 4.5 6
      vertex -11.3 4.5 3
      vertex -10.5 4.5 3
    endloop
  endfacet
  facet normal -0 0 1
    outer loop
      vertex -11.3 4.5 3
      vertex -10.5 0.5 3
      vertex -10.5 4.5 3
    endloop
  endfacet
  facet normal 0 0 1
    outer loop
      vertex -10.5 0.5 3
      vertex -11.3 4.5 3
      vertex -11.3 0.5 3
    endloop
  endfacet
  facet normal 0 1 -0
    outer loop
      vertex -10.5 0.5 3
      vertex -11.3 0.5 6
      vertex -10.5 0.5 6
    endloop
  endfacet
  facet normal 0 1 0
    outer loop
      vertex -11.3 0.5 6
      vertex -10.5 0.5 3
      vertex -11.3 0.5 3
    endloop
  endfacet
  facet normal -0 0 1
    outer loop
      vertex -11.3 -8 3
      vertex -10.5 -12 3
      vertex -10.5 -8 3
    endloop
  endfacet
  facet normal 0 0 1
    outer loop
      vertex -10.5 -12 3
      vertex -11.3 -8 3
      vertex -11.3 -12 3
    endloop
  endfacet
  facet normal 0 1 -0
    outer loop
      vertex -10.5 -12 3
      vertex -11.3 -12 6
      vertex -10.5 -12 6
    endloop
  endfacet
  facet normal 0 1 0
    outer loop
      vertex -11.3 -12 6
      vertex -10.5 -12 3
      vertex -11.3 -12 3
    endloop
  endfacet
  facet normal 0 -1 0
    outer loop
      vertex -11.3 -8 3
      vertex -10.5 -8 6
      vertex -11.3 -8 6
    endloop
  endfacet
  facet normal 0 -1 -0
    outer loop
      vertex -10.5 -8 6
      vertex -11.3 -8 3
      vertex -10.5 -8 3
    endloop
  endfacet
  facet normal 0 -1 0
    outer loop
      vertex -11.3 -17.5 3
      vertex -10.5 -17.5 6
      vertex -11.3 -17.5 6
    endloop
  endfacet
  facet normal 0 -1 -0
    outer loop
      vertex -10.5 -17.5 6
      vertex -11.3 -17.5 3
      vertex -10.5 -17.5 3
    endloop
  endfacet
  facet normal -0 0 1
    outer loop
      vertex -11.3 -17.5 3
      vertex -10.5 -21.5 3
      vertex -10.5 -17.5 3
    endloop
  endfacet
  facet normal 0 0 1
    outer loop
      vertex -10.5 -21.5 3
      vertex -11.3 -17.5 3
      vertex -11.3 -21.5 3
    endloop
  endfacet
  facet normal 0 1 -0
    outer loop
      vertex -10.5 -21.5 3
      vertex -11.3 -21.5 6
      vertex -10.5 -21.5 6
    endloop
  endfacet
  facet normal 0 1 0
    outer loop
      vertex -11.3 -21.5 6
      vertex -10.5 -21.5 3
      vertex -11.3 -21.5 3
    endloop
  endfacet
  facet normal 1 -0 0
    outer loop
      vertex -7.5 -27.55 6
      vertex -7.5 -26.75 3
      vertex -7.5 -26.75 6
    endloop
  endfacet
  facet normal 1 0 0
    outer loop
      vertex -7.5 -26.75 3
      vertex -7.5 -27.55 6
      vertex -7.5 -27.55 3
    endloop
  endfacet
  facet normal -1 0 0
    outer loop
      vertex 7.5 -27.55 3
      vertex 7.5 -26.75 6
      vertex 7.5 -26.75 3
    endloop
  endfacet
  facet normal -1 -0 0
    outer loop
      vertex 7.5 -26.75 6
      vertex 7.5 -27.55 3
      vertex 7.5 -27.55 6
    endloop
  endfacet
  facet normal -0 0 1
    outer loop
      vertex -7.5 -26.75 3
      vertex 7.5 -27.55 3
      vertex 7.5 -26.75 3
    endloop
  endfacet
  facet normal 0 0 1
    outer loop
      vertex 7.5 -27.55 3
      vertex -7.5 -26.75 3
      vertex -7.5 -27.55 3
    endloop
  endfacet
  facet normal -1 0 0
    outer loop
      vertex -11.3 27.55 -0.5
      vertex -11.3 23.25 3
      vertex -11.3 27.55 6
    endloop
  endfacet
  facet normal -1 0 0
    outer loop
      vertex -11.3 27.55 -0.5
      vertex -11.3 19.25 3
      vertex -11.3 23.25 3
    endloop
  endfacet
  facet normal -1 0 0
    outer loop
      vertex -11.3 19.25 3
      vertex -11.3 4.5 3
      vertex -11.3 19.25 6
    endloop
  endfacet
  facet normal -1 0 0
    outer loop
      vertex -11.3 27.55 -0.5
      vertex -11.3 4.5 3
      vertex -11.3 19.25 3
    endloop
  endfacet
  facet normal -1 0 0
    outer loop
      vertex -11.3 27.55 -0.5
      vertex -11.3 0.5 3
      vertex -11.3 4.5 3
    endloop
  endfacet
  facet normal -1 0 0
    outer loop
      vertex -11.3 0.5 3
      vertex -11.3 -8 3
      vertex -11.3 0.5 6
    endloop
  endfacet
  facet normal -1 0 0
    outer loop
      vertex -11.3 -27.55 -0.5
      vertex -11.3 0.5 3
      vertex -11.3 27.55 -0.5
    endloop
  endfacet
  facet normal -1 -0 0
    outer loop
      vertex -11.3 0.5 3
      vertex -11.3 -27.55 -0.5
      vertex -11.3 -8 3
    endloop
  endfacet
  facet normal -1 0 0
    outer loop
      vertex -11.3 -12 3
      vertex -11.3 -17.5 3
      vertex -11.3 -12 6
    endloop
  endfacet
  facet normal -1 -0 0
    outer loop
      vertex -11.3 -8 3
      vertex -11.3 -27.55 -0.5
      vertex -11.3 -12 3
    endloop
  endfacet
  facet normal -1 -0 0
    outer loop
      vertex -11.3 -12 3
      vertex -11.3 -27.55 -0.5
      vertex -11.3 -17.5 3
    endloop
  endfacet
  facet normal -1 -0 0
    outer loop
      vertex -11.3 -17.5 3
      vertex -11.3 -27.55 -0.5
      vertex -11.3 -21.5 3
    endloop
  endfacet
  facet normal -1 0 0
    outer loop
      vertex -11.3 -27.55 6
      vertex -11.3 -21.5 3
      vertex -11.3 -27.55 -0.5
    endloop
  endfacet
  facet normal -1 0 0
    outer loop
      vertex -11.3 -21.5 3
      vertex -11.3 -27.55 6
      vertex -11.3 -21.5 6
    endloop
  endfacet
  facet normal -1 -0 0
    outer loop
      vertex -11.3 27.55 6
      vertex -11.3 23.25 3
      vertex -11.3 23.25 6
    endloop
  endfacet
  facet normal -1 -0 0
    outer loop
      vertex -11.3 19.25 6
      vertex -11.3 4.5 3
      vertex -11.3 4.5 6
    endloop
  endfacet
  facet normal -1 -0 0
    outer loop
      vertex -11.3 0.5 6
      vertex -11.3 -8 3
      vertex -11.3 -8 6
    endloop
  endfacet
  facet normal -1 -0 0
    outer loop
      vertex -11.3 -12 6
      vertex -11.3 -17.5 3
      vertex -11.3 -17.5 6
    endloop
  endfacet
  facet normal -0 0 1
    outer loop
      vertex 7.5 -26.75 6
      vertex 11.3 -27.55 6
      vertex 11.3 -26.75 6
    endloop
  endfacet
  facet normal 0 0 1
    outer loop
      vertex 11.3 -27.55 6
      vertex 7.5 -26.75 6
      vertex 7.5 -27.55 6
    endloop
  endfacet
  facet normal 0 0 1
    outer loop
      vertex -10.5 -21.5 6
      vertex -11.3 -21.5 6
      vertex -10.5 -26.75 6
    endloop
  endfacet
  facet normal -0 0 1
    outer loop
      vertex -10.5 -26.75 6
      vertex -7.5 -27.55 6
      vertex -7.5 -26.75 6
    endloop
  endfacet
  facet normal 0 0 1
    outer loop
      vertex -10.5 -26.75 6
      vertex -11.3 -27.55 6
      vertex -7.5 -27.55 6
    endloop
  endfacet
  facet normal 0 0 1
    outer loop
      vertex -11.3 -27.55 6
      vertex -10.5 -26.75 6
      vertex -11.3 -21.5 6
    endloop
  endfacet
  facet normal 0 0 1
    outer loop
      vertex 11.3 27.55 6
      vertex 10.5 26.75 6
      vertex 11.3 25 6
    endloop
  endfacet
  facet normal 0 0 1
    outer loop
      vertex 11.3 27.55 6
      vertex -10.5 26.75 6
      vertex 10.5 26.75 6
    endloop
  endfacet
  facet normal -0 0 1
    outer loop
      vertex -11.3 27.55 6
      vertex -10.5 26.75 6
      vertex 11.3 27.55 6
    endloop
  endfacet
  facet normal 0 0 1
    outer loop
      vertex -11.3 23.25 6
      vertex -10.5 26.75 6
      vertex -11.3 27.55 6
    endloop
  endfacet
  facet normal 0 0 1
    outer loop
      vertex -10.5 26.75 6
      vertex -11.3 23.25 6
      vertex -10.5 23.25 6
    endloop
  endfacet
  facet normal 0 0 1
    outer loop
      vertex 11.3 25 6
      vertex 10.5 26.75 6
      vertex 10.5 25 6
    endloop
  endfacet
  facet normal -0 0 1
    outer loop
      vertex -11.3 19.25 6
      vertex -10.5 4.5 6
      vertex -10.5 19.25 6
    endloop
  endfacet
  facet normal 0 0 1
    outer loop
      vertex -10.5 4.5 6
      vertex -11.3 19.25 6
      vertex -11.3 4.5 6
    endloop
  endfacet
  facet normal -0 0 1
    outer loop
      vertex -11.3 0.5 6
      vertex -10.5 -8 6
      vertex -10.5 0.5 6
    endloop
  endfacet
  facet normal 0 0 1
    outer loop
      vertex -10.5 -8 6
      vertex -11.3 0.5 6
      vertex -11.3 -8 6
    endloop
  endfacet
  facet normal -0 0 1
    outer loop
      vertex -11.3 -12 6
      vertex -10.5 -17.5 6
      vertex -10.5 -12 6
    endloop
  endfacet
  facet normal 0 0 1
    outer loop
      vertex -10.5 -17.5 6
      vertex -11.3 -12 6
      vertex -11.3 -17.5 6
    endloop
  endfacet
  facet normal -0 0 1
    outer loop
      vertex 10.5 21 6
      vertex 11.3 5 6
      vertex 11.3 21 6
    endloop
  endfacet
  facet normal 0 0 1
    outer loop
      vertex 11.3 5 6
      vertex 10.5 21 6
      vertex 10.5 5 6
    endloop
  endfacet
  facet normal -0 0 1
    outer loop
      vertex 10.5 1 6
      vertex 11.3 -10.75 6
      vertex 11.3 1 6
    endloop
  endfacet
  facet normal 0 0 1
    outer loop
      vertex 11.3 -10.75 6
      vertex 10.5 1 6
      vertex 10.5 -10.75 6
    endloop
  endfacet
  facet normal 1 0 0
    outer loop
      vertex 11.3 -26.75 6
      vertex 11.3 -27.55 6
      vertex 11.3 -26.75 3
    endloop
  endfacet
  facet normal 1 0 0
    outer loop
      vertex 11.3 1 6
      vertex 11.3 -10.75 6
      vertex 11.3 1 3
    endloop
  endfacet
  facet normal 1 0 0
    outer loop
      vertex 11.3 21 6
      vertex 11.3 5 6
      vertex 11.3 21 3
    endloop
  endfacet
  facet normal 1 0 0
    outer loop
      vertex 11.3 25 3
      vertex 11.3 27.55 6
      vertex 11.3 25 6
    endloop
  endfacet
  facet normal 1 0 0
    outer loop
      vertex 11.3 27.55 6
      vertex 11.3 25 3
      vertex 11.3 27.55 -0.5
    endloop
  endfacet
  facet normal 1 -0 0
    outer loop
      vertex 11.3 21 3
      vertex 11.3 27.55 -0.5
      vertex 11.3 25 3
    endloop
  endfacet
  facet normal 1 0 0
    outer loop
      vertex 11.3 5 3
      vertex 11.3 21 3
      vertex 11.3 5 6
    endloop
  endfacet
  facet normal 1 0 0
    outer loop
      vertex 11.3 21 3
      vertex 11.3 5 3
      vertex 11.3 27.55 -0.5
    endloop
  endfacet
  facet normal 1 -0 0
    outer loop
      vertex 11.3 1 3
      vertex 11.3 27.55 -0.5
      vertex 11.3 5 3
    endloop
  endfacet
  facet normal 1 0 0
    outer loop
      vertex 11.3 -10.75 3
      vertex 11.3 1 3
      vertex 11.3 -10.75 6
    endloop
  endfacet
  facet normal 1 0 0
    outer loop
      vertex 11.3 -27.55 -0.5
      vertex 11.3 1 3
      vertex 11.3 -10.75 3
    endloop
  endfacet
  facet normal 1 0 0
    outer loop
      vertex 11.3 -27.55 -0.5
      vertex 11.3 -10.75 3
      vertex 11.3 -26.75 3
    endloop
  endfacet
  facet normal 1 0 0
    outer loop
      vertex 11.3 1 3
      vertex 11.3 -27.55 -0.5
      vertex 11.3 27.55 -0.5
    endloop
  endfacet
  facet normal 1 0 0
    outer loop
      vertex 11.3 -27.55 -0.5
      vertex 11.3 -26.75 3
      vertex 11.3 -27.55 6
    endloop
  endfacet
  facet normal 0 1 -0
    outer loop
      vertex 11.3 27.55 -0.5
      vertex -11.3 27.55 6
      vertex 11.3 27.55 6
    endloop
  endfacet
  facet normal 0 1 0
    outer loop
      vertex -11.3 27.55 6
      vertex 11.3 27.55 -0.5
      vertex -11.3 27.55 -0.5
    endloop
  endfacet
  facet normal 0 0 -1
    outer loop
      vertex -11.3 -27.55 -0.5
      vertex 11.3 27.55 -0.5
      vertex 11.3 -27.55 -0.5
    endloop
  endfacet
  facet normal -0 0 -1
    outer loop
      vertex 11.3 27.55 -0.5
      vertex -11.3 -27.55 -0.5
      vertex -11.3 27.55 -0.5
    endloop
  endfacet
  facet normal 0 -1 0
    outer loop
      vertex -11.3 -27.55 6
      vertex -7.5 -27.55 3
      vertex -7.5 -27.55 6
    endloop
  endfacet
  facet normal 0 -1 -0
    outer loop
      vertex -7.5 -27.55 3
      vertex -11.3 -27.55 -0.5
      vertex 7.5 -27.55 3
    endloop
  endfacet
  facet normal 0 -1 0
    outer loop
      vertex -11.3 -27.55 -0.5
      vertex -7.5 -27.55 3
      vertex -11.3 -27.55 6
    endloop
  endfacet
  facet normal 0 -1 0
    outer loop
      vertex 7.5 -27.55 3
      vertex 11.3 -27.55 6
      vertex 7.5 -27.55 6
    endloop
  endfacet
  facet normal 0 -1 0
    outer loop
      vertex 7.5 -27.55 3
      vertex 11.3 -27.55 -0.5
      vertex 11.3 -27.55 6
    endloop
  endfacet
  facet normal 0 -1 0
    outer loop
      vertex 11.3 -27.55 -0.5
      vertex 7.5 -27.55 3
      vertex -11.3 -27.55 -0.5
    endloop
  endfacet
  facet normal 1 0 0
    outer loop
      vertex -10.5 -21.5 6
      vertex -10.5 -26.75 6
      vertex -10.5 -21.5 3
    endloop
  endfacet
  facet normal 1 0 0
    outer loop
      vertex -10.5 -12 6
      vertex -10.5 -17.5 6
      vertex -10.5 -12 3
    endloop
  endfacet
  facet normal 1 0 0
    outer loop
      vertex -10.5 0.5 6
      vertex -10.5 -8 6
      vertex -10.5 0.5 3
    endloop
  endfacet
  facet normal 1 0 0
    outer loop
      vertex -10.5 19.25 6
      vertex -10.5 4.5 6
      vertex -10.5 19.25 3
    endloop
  endfacet
  facet normal 1 0 0
    outer loop
      vertex -10.5 23.25 3
      vertex -10.5 26.75 6
      vertex -10.5 23.25 6
    endloop
  endfacet
  facet normal 1 0 0
    outer loop
      vertex -10.5 26.75 6
      vertex -10.5 23.25 3
      vertex -10.5 26.75 0
    endloop
  endfacet
  facet normal 1 -0 0
    outer loop
      vertex -10.5 19.25 3
      vertex -10.5 26.75 0
      vertex -10.5 23.25 3
    endloop
  endfacet
  facet normal 1 0 0
    outer loop
      vertex -10.5 4.5 3
      vertex -10.5 19.25 3
      vertex -10.5 4.5 6
    endloop
  endfacet
  facet normal 1 0 0
    outer loop
      vertex -10.5 19.25 3
      vertex -10.5 4.5 3
      vertex -10.5 26.75 0
    endloop
  endfacet
  facet normal 1 -0 0
    outer loop
      vertex -10.5 0.5 3
      vertex -10.5 26.75 0
      vertex -10.5 4.5 3
    endloop
  endfacet
  facet normal 1 0 0
    outer loop
      vertex -10.5 -8 3
      vertex -10.5 0.5 3
      vertex -10.5 -8 6
    endloop
  endfacet
  facet normal 1 0 0
    outer loop
      vertex -10.5 -26.75 0
      vertex -10.5 0.5 3
      vertex -10.5 -8 3
    endloop
  endfacet
  facet normal 1 0 0
    outer loop
      vertex -10.5 -26.75 0
      vertex -10.5 -8 3
      vertex -10.5 -12 3
    endloop
  endfacet
  facet normal 1 0 0
    outer loop
      vertex -10.5 -17.5 3
      vertex -10.5 -12 3
      vertex -10.5 -17.5 6
    endloop
  endfacet
  facet normal 1 0 0
    outer loop
      vertex -10.5 -26.75 0
      vertex -10.5 -12 3
      vertex -10.5 -17.5 3
    endloop
  endfacet
  facet normal 1 0 0
    outer loop
      vertex -10.5 -26.75 0
      vertex -10.5 -17.5 3
      vertex -10.5 -21.5 3
    endloop
  endfacet
  facet normal 1 0 0
    outer loop
      vertex -10.5 0.5 3
      vertex -10.5 -26.75 0
      vertex -10.5 26.75 0
    endloop
  endfacet
  facet normal 1 0 0
    outer loop
      vertex -10.5 -26.75 0
      vertex -10.5 -21.5 3
      vertex -10.5 -26.75 6
    endloop
  endfacet
  facet normal -1 0 0
    outer loop
      vertex 10.5 26.75 0
      vertex 10.5 25 3
      vertex 10.5 26.75 6
    endloop
  endfacet
  facet normal -1 0 0
    outer loop
      vertex 10.5 26.75 0
      vertex 10.5 21 3
      vertex 10.5 25 3
    endloop
  endfacet
  facet normal -1 0 0
    outer loop
      vertex 10.5 21 3
      vertex 10.5 5 3
      vertex 10.5 21 6
    endloop
  endfacet
  facet normal -1 0 0
    outer loop
      vertex 10.5 26.75 0
      vertex 10.5 5 3
      vertex 10.5 21 3
    endloop
  endfacet
  facet normal -1 0 0
    outer loop
      vertex 10.5 26.75 0
      vertex 10.5 1 3
      vertex 10.5 5 3
    endloop
  endfacet
  facet normal -1 0 0
    outer loop
      vertex 10.5 1 3
      vertex 10.5 -10.75 3
      vertex 10.5 1 6
    endloop
  endfacet
  facet normal -1 0 0
    outer loop
      vertex 10.5 -26.75 0
      vertex 10.5 1 3
      vertex 10.5 26.75 0
    endloop
  endfacet
  facet normal -1 -0 0
    outer loop
      vertex 10.5 1 3
      vertex 10.5 -26.75 0
      vertex 10.5 -10.75 3
    endloop
  endfacet
  facet normal -1 -0 0
    outer loop
      vertex 10.5 -10.75 3
      vertex 10.5 -26.75 0
      vertex 10.5 -26.75 3
    endloop
  endfacet
  facet normal -1 -0 0
    outer loop
      vertex 10.5 26.75 6
      vertex 10.5 25 3
      vertex 10.5 25 6
    endloop
  endfacet
  facet normal -1 -0 0
    outer loop
      vertex 10.5 21 6
      vertex 10.5 5 3
      vertex 10.5 5 6
    endloop
  endfacet
  facet normal -1 -0 0
    outer loop
      vertex 10.5 1 6
      vertex 10.5 -10.75 3
      vertex 10.5 -10.75 6
    endloop
  endfacet
  facet normal 0 -1 0
    outer loop
      vertex -10.5 26.75 0
      vertex 10.5 26.75 6
      vertex -10.5 26.75 6
    endloop
  endfacet
  facet normal 0 -1 -0
    outer loop
      vertex 10.5 26.75 6
      vertex -10.5 26.75 0
      vertex 10.5 26.75 0
    endloop
  endfacet
  facet normal -0 0 1
    outer loop
      vertex -10.5 26.75 0
      vertex 10.5 -26.75 0
      vertex 10.5 26.75 0
    endloop
  endfacet
  facet normal 0 0 1
    outer loop
      vertex 10.5 -26.75 0
      vertex -10.5 26.75 0
      vertex -10.5 -26.75 0
    endloop
  endfacet
  facet normal 0 1 -0
    outer loop
      vertex 4 -27.55 -0.5
      vertex -4 -27.55 1.5
      vertex 4 -27.55 1.5
    endloop
  endfacet
  facet normal 0 1 0
    outer loop
      vertex -4 -27.55 1.5
      vertex 4 -27.55 -0.5
      vertex -4 -27.55 -0.5
    endloop
  endfacet
  facet normal -1 0 0
    outer loop
      vertex -4 -34.25 -0.5
      vertex -4 -27.55 1.5
      vertex -4 -27.55 -0.5
    endloop
  endfacet
  facet normal -1 -0 0
    outer loop
      vertex -4 -27.55 1.5
      vertex -4 -34.25 -0.5
      vertex -4 -34.25 1.5
    endloop
  endfacet
  facet normal 1 -0 0
    outer loop
      vertex 4 -34.25 1.5
      vertex 4 -27.55 -0.5
      vertex 4 -27.55 1.5
    endloop
  endfacet
  facet normal 1 0 0
    outer loop
      vertex 4 -27.55 -0.5
      vertex 4 -34.25 1.5
      vertex 4 -34.25 -0.5
    endloop
  endfacet
  facet normal -0 0 1
    outer loop
      vertex 2.5 -32.25 1.5
      vertex 4 -34.25 1.5
      vertex 4 -27.55 1.5
    endloop
  endfacet
  facet normal 0 0 1
    outer loop
      vertex 2.5 -32.25 1.5
      vertex 4 -27.55 1.5
      vertex 2.5 -29.25 1.5
    endloop
  endfacet
  facet normal 0 0 1
    outer loop
      vertex 4 -27.55 1.5
      vertex -2.5 -29.25 1.5
      vertex 2.5 -29.25 1.5
    endloop
  endfacet
  facet normal 0 0 1
    outer loop
      vertex -4 -27.55 1.5
      vertex -2.5 -32.25 1.5
      vertex -2.5 -29.25 1.5
    endloop
  endfacet
  facet normal -0 0 1
    outer loop
      vertex -4 -27.55 1.5
      vertex -2.5 -29.25 1.5
      vertex 4 -27.55 1.5
    endloop
  endfacet
  facet normal 0 0 1
    outer loop
      vertex -2.5 -32.25 1.5
      vertex -4 -27.55 1.5
      vertex -4 -34.25 1.5
    endloop
  endfacet
  facet normal 0 0 1
    outer loop
      vertex -2.5 -32.25 1.5
      vertex -4 -34.25 1.5
      vertex -3 -35.25 1.5
    endloop
  endfacet
  facet normal 0 0 1
    outer loop
      vertex 4 -34.25 1.5
      vertex 2.5 -32.25 1.5
      vertex 3 -35.25 1.5
    endloop
  endfacet
  facet normal -0 0 1
    outer loop
      vertex -2.5 -32.25 1.5
      vertex 3 -35.25 1.5
      vertex 2.5 -32.25 1.5
    endloop
  endfacet
  facet normal 0 0 1
    outer loop
      vertex 3 -35.25 1.5
      vertex -2.5 -32.25 1.5
      vertex -3 -35.25 1.5
    endloop
  endfacet
  facet normal 0.707107 -0.707107 0
    outer loop
      vertex 3 -35.25 1.5
      vertex 4 -34.25 -0.5
      vertex 4 -34.25 1.5
    endloop
  endfacet
  facet normal 0.707107 -0.707107 0
    outer loop
      vertex 4 -34.25 -0.5
      vertex 3 -35.25 1.5
      vertex 3 -35.25 -0.5
    endloop
  endfacet
  facet normal 0 -1 0
    outer loop
      vertex -3 -35.25 -0.5
      vertex 3 -35.25 1.5
      vertex -3 -35.25 1.5
    endloop
  endfacet
  facet normal 0 -1 -0
    outer loop
      vertex 3 -35.25 1.5
      vertex -3 -35.25 -0.5
      vertex 3 -35.25 -0.5
    endloop
  endfacet
  facet normal -0.707107 -0.707107 0
    outer loop
      vertex -3 -35.25 -0.5
      vertex -4 -34.25 1.5
      vertex -4 -34.25 -0.5
    endloop
  endfacet
  facet normal -0.707107 -0.707107 0
    outer loop
      vertex -4 -34.25 1.5
      vertex -3 -35.25 -0.5
      vertex -3 -35.25 1.5
    endloop
  endfacet
  facet normal 0 0 -1
    outer loop
      vertex -4 -34.25 -0.5
      vertex 4 -34.25 -0.5
      vertex 3 -35.25 -0.5
    endloop
  endfacet
  facet normal 0 0 -1
    outer loop
      vertex -4 -34.25 -0.5
      vertex 3 -35.25 -0.5
      vertex -3 -35.25 -0.5
    endloop
  endfacet
  facet normal 0 0 -1
    outer loop
      vertex 4 -34.25 -0.5
      vertex -4 -34.25 -0.5
      vertex 4 -27.55 -0.5
    endloop
  endfacet
  facet normal -0 0 -1
    outer loop
      vertex 4 -27.55 -0.5
      vertex -4 -34.25 -0.5
      vertex -4 -27.55 -0.5
    endloop
  endfacet
  facet normal -1 0 0
    outer loop
      vertex -2.5 -32.25 1.5
      vertex -2.5 -29.25 3.5
      vertex -2.5 -29.25 1.5
    endloop
  endfacet
  facet normal -1 -0 0
    outer loop
      vertex -2.5 -29.25 3.5
      vertex -2.5 -32.25 1.5
      vertex -2.5 -32.25 3.5
    endloop
  endfacet
  facet normal -0 0 1
    outer loop
      vertex -2.5 -29.25 3.5
      vertex 2.5 -32.25 3.5
      vertex 2.5 -29.25 3.5
    endloop
  endfacet
  facet normal 0 0 1
    outer loop
      vertex 2.5 -32.25 3.5
      vertex -2.5 -29.25 3.5
      vertex -2.5 -32.25 3.5
    endloop
  endfacet
  facet normal 1 -0 0
    outer loop
      vertex 2.5 -32.25 3.5
      vertex 2.5 -29.25 1.5
      vertex 2.5 -29.25 3.5
    endloop
  endfacet
  facet normal 1 0 0
    outer loop
      vertex 2.5 -29.25 1.5
      vertex 2.5 -32.25 3.5
      vertex 2.5 -32.25 1.5
    endloop
  endfacet
  facet normal 0 1 -0
    outer loop
      vertex 2.5 -29.25 1.5
      vertex -2.5 -29.25 3.5
      vertex 2.5 -29.25 3.5
    endloop
  endfacet
  facet normal 0 1 0
    outer loop
      vertex -2.5 -29.25 3.5
      vertex 2.5 -29.25 1.5
      vertex -2.5 -29.25 1.5
    endloop
  endfacet
  facet normal 0 -1 0
    outer loop
      vertex -2.5 -32.25 1.5
      vertex 2.5 -32.25 3.5
      vertex -2.5 -32.25 3.5
    endloop
  endfacet
  facet normal 0 -1 -0
    outer loop
      vertex 2.5 -32.25 3.5
      vertex -2.5 -32.25 1.5
      vertex 2.5 -32.25 1.5
    endloop
  endfacet
endsolid OpenSCAD_Model
