<?xml version="1.0" standalone="no"?>
<!DOCTYPE svg PUBLIC "-//W3C//DTD SVG 1.1//EN" "http://www.w3.org/Graphics/SVG/1.1/DTD/svg11.dtd">
<svg width="18mm" height="111mm" viewBox="-9 -10 18 111" xmlns="http://www.w3.org/2000/svg" version="1.1">
<title>OpenSCAD Model</title>
<path d="
M 5.17554,7.74129 L 5.32614,7.70711 L 5.40002,7.67757 L 5.5327,7.59845 L 5.59367,7.54764 L 5.69537,7.43152
 L 5.73775,7.36427 L 5.79863,7.22229 L 5.81815,7.14511 L 5.83363,6.97414 L 5.83156,6.91154 L 5.81653,6.81648
 L 5.81189,6.79385 L 4.50247,1.61853 L 4.49374,1.52264 L 4.51054,1.44859 L 4.55385,1.37598 L 4.58745,1.34238
 L 8.68265,-2.06979 L 8.71115,-2.09761 L 8.83894,-2.24356 L 8.88129,-2.31079 L 8.94217,-2.45277 L 8.96169,-2.52994
 L 8.97565,-2.68398 L 8.97038,-2.76312 L 8.9362,-2.91373 L 8.90666,-2.98761 L 8.82755,-3.12029 L 8.77673,-3.18126
 L 8.66061,-3.28296 L 8.59338,-3.32533 L 8.43576,-3.39293 L 8.37529,-3.41037 L 8.28015,-3.4254 L 8.25734,-3.42796
 L 2.9306,-3.78178 L 2.83684,-3.80307 L 2.77158,-3.842 L 2.71582,-3.90567 L 2.69437,-3.94777 L 0.714661,-8.8972
 L 0.696991,-8.93295 L 0.597504,-9.09981 L 0.546677,-9.1608 L 0.430557,-9.2625 L 0.363312,-9.30487 L 0.221329,-9.36575
 L 0.144165,-9.38527 L -0.00987244,-9.39923 L -0.0890198,-9.39397 L -0.239624,-9.35979 L -0.313507,-9.33025 L -0.446182,-9.25113
 L -0.507172,-9.20032 L -0.620087,-9.07138 L -0.655289,-9.01941 L -0.698853,-8.93396 L -0.708405,-8.91292 L -2.69118,-3.95576
 L -2.74046,-3.87311 L -2.79765,-3.82303 L -2.87526,-3.78978 L -2.92218,-3.78235 L -8.24071,-3.42903 L -8.28009,-3.42328
 L -8.46968,-3.38025 L -8.54356,-3.35071 L -8.67624,-3.27159 L -8.73721,-3.22078 L -8.83891,-3.10466 L -8.88129,-3.03741
 L -8.94217,-2.89543 L -8.96169,-2.81827 L -8.97565,-2.66423 L -8.97038,-2.58508 L -8.9362,-2.43448 L -8.90668,-2.36063
 L -8.81894,-2.21346 L -8.78038,-2.16391 L -8.71233,-2.09586 L -8.69531,-2.08032 L -4.5939,1.33701 L -4.5305,1.40941
 L -4.50064,1.47911 L -4.49297,1.56343 L -4.50038,1.61026 L -5.80777,6.7776 L -5.81448,6.81691 L -5.83211,7.01077
 L -5.82684,7.08998 L -5.79266,7.24059 L -5.76312,7.31447 L -5.68401,7.44714 L -5.63319,7.50812 L -5.51707,7.60982
 L -5.44983,7.65219 L -5.30785,7.71307 L -5.23068,7.73259 L -5.07664,7.74655 L -4.99753,7.7413 L -4.83037,7.70338
 L -4.77118,7.68196 L -4.68604,7.63855 L -4.66606,7.6272 L -0.147964,4.78207 L -0.0596619,4.74425 L 0.0161285,4.73735
 L 0.0986176,4.75607 L 0.140793,4.77756 L 4.65164,7.61812 L 4.68689,7.63663 L 4.86519,7.71307 L 4.94235,7.73259
 L 5.09639,7.74655 z
M 7.00058,100.251 L 7.19215,100.221 L 7.26782,100.196 L 7.40553,100.126 L 7.4698,100.079 L 7.57906,99.9698
 L 7.62575,99.9055 L 7.69594,99.7678 L 7.72052,99.6922 L 7.75081,99.5006 L 7.75392,99.4609 L 7.75392,93.4489
 L 7.76898,93.3539 L 7.8035,93.2862 L 7.85724,93.2324 L 7.92766,93.1965 L 8.02156,93.1794 L 8.09656,93.1531
 L 8.15974,93.1049 L 8.20494,93.0396 L 8.22772,92.9634 L 8.22588,92.884 L 8.19957,92.809 L 8.15137,92.7458
 L 8.08601,92.7006 L 8.00987,92.6778 L 7.96404,92.6758 L 4.11462,92.8573 L 4.09796,92.8578 L 0.0106812,92.922
 L -0.0106812,92.922 L -4.09796,92.8578 L -4.11462,92.8573 L -7.96411,92.6758 L -8.04311,92.6845 L -8.11552,92.7172
 L -8.1743,92.7707 L -8.21368,92.8398 L -8.2298,92.9176 L -8.22107,92.9966 L -8.18837,93.069 L -8.13489,93.1278
 L -8.06586,93.1671 L -8.02748,93.1783 L -7.91411,93.2017 L -7.84814,93.2393 L -7.79703,93.2955 L -7.76447,93.3676
 L -7.75392,93.4459 L -7.75392,99.4609 L -7.75081,99.5006 L -7.72052,99.6922 L -7.69594,99.7678 L -7.62575,99.9055
 L -7.57906,99.9698 L -7.4698,100.079 L -7.40553,100.126 L -7.26782,100.196 L -7.19215,100.221 L -7.00058,100.251
 L -6.96091,100.254 L 6.96091,100.254 z
" stroke="black" fill="lightgray" stroke-width="0.5"/>
</svg>
