<?xml version="1.0" standalone="no"?>
<!DOCTYPE svg PUBLIC "-//W3C//DTD SVG 1.1//EN" "http://www.w3.org/Graphics/SVG/1.1/DTD/svg11.dtd">
<svg width="76mm" height="110mm" viewBox="-38 -10 76 110" xmlns="http://www.w3.org/2000/svg" version="1.1">
<title>OpenSCAD Model</title>
<path d="
M -28.5406,90.0269 L -24.5445,90.8543 L -24.5168,90.8597 L -20.4884,91.5627 L -20.4642,91.5665 L -16.4187,92.1423
 L -16.3957,92.1452 L -12.3296,92.5941 L -12.3042,92.5965 L -8.23524,92.9168 L -8.20412,92.9188 L -7.97646,92.9295
 L -7.82326,92.9611 L -7.68738,93.0386 L -7.58209,93.1543 L -7.5177,93.2969 L -7.49992,93.4289 L -7.49992,99.4609
 L -7.46964,99.6525 L -7.39944,99.7902 L -7.29019,99.8994 L -7.15248,99.9696 L -6.96091,99.9999 L 6.96091,99.9999
 L 7.15248,99.9696 L 7.29019,99.8994 L 7.39944,99.7902 L 7.46964,99.6525 L 7.49992,99.4609 L 7.49992,93.4289
 L 7.52441,93.2744 L 7.59544,93.135 L 7.70607,93.0244 L 7.84546,92.9533 L 7.97646,92.9295 L 8.20412,92.9188
 L 8.23524,92.9168 L 12.3042,92.5965 L 12.3296,92.5941 L 16.3957,92.1452 L 16.4187,92.1423 L 20.4642,91.5665
 L 20.4884,91.5627 L 24.5168,90.8597 L 24.5445,90.8543 L 28.5406,90.0269 L 28.5608,90.0224 L 32.5483,89.065
 L 32.5674,89.0601 L 36.5074,87.9822 L 36.5283,87.9762 L 37.4164,87.7029 L 37.5906,87.6176 L 37.7016,87.51
 L 37.7738,87.3736 L 37.8004,87.2211 L 37.7816,87.0884 L 37.6247,86.8231 L 35.4842,84.6142 L 35.4734,84.6027
 L 32.7176,81.5741 L 32.7072,81.5623 L 30.0419,78.4418 L 30.0318,78.4297 L 27.4754,75.2388 L 27.4658,75.2264
 L 25.0052,71.9489 L 24.996,71.9362 L 22.6382,68.5816 L 22.6294,68.5686 L 20.3833,65.1492 L 20.3749,65.136
 L 18.2318,61.6387 L 18.2238,61.6252 L 16.1948,58.068 L 16.1873,58.0543 L 14.5753,55.0096 L 14.5246,54.8616
 L 14.5222,54.7052 L 14.5682,54.5557 L 14.6581,54.4276 L 14.7832,54.3337 L 14.9312,54.2831 L 15.1478,54.2453
 L 15.1755,54.24 L 17.6334,53.731 L 17.6585,53.7254 L 20.11,53.1367 L 20.1329,53.1309 L 22.555,52.4683
 L 22.5835,52.4599 L 22.812,52.3897 L 22.9867,52.3042 L 23.0975,52.1967 L 23.1699,52.0601 L 23.1965,51.908
 L 23.1747,51.7551 L 23.098,51.5984 L 23.0482,51.5381 L 21.9314,50.3856 L 21.9206,50.3741 L 20.2221,48.5075
 L 20.2117,48.4956 L 18.5676,46.5706 L 18.5575,46.5585 L 16.9832,44.5934 L 16.9736,44.581 L 15.456,42.5597
 L 15.4468,42.547 L 13.9922,40.4775 L 13.9834,40.4645 L 12.5986,38.3561 L 12.5902,38.3428 L 11.2694,36.1874
 L 11.2614,36.1739 L 10.0101,33.9803 L 10.0026,33.9665 L 9.12926,32.317 L 9.0786,32.169 L 9.07616,32.0126
 L 9.12216,31.8631 L 9.21211,31.7351 L 9.33723,31.6412 L 9.46976,31.5935 L 10.8925,31.2989 L 10.9176,31.2933
 L 12.4249,30.9314 L 12.4479,30.9254 L 13.7673,30.5646 L 13.9447,30.4845 L 14.0591,30.3804 L 14.1356,30.2464
 L 14.1669,30.0951 L 14.1499,29.9416 L 14.0797,29.7861 L 14.0163,29.707 L 13.556,29.2318 L 13.5453,29.2204
 L 12.5023,28.0743 L 12.4919,28.0624 L 11.4788,26.8763 L 11.4687,26.8642 L 10.4955,25.6492 L 10.4858,25.6368
 L 9.55536,24.3977 L 9.54613,24.3849 L 8.64876,23.1081 L 8.63991,23.0951 L 7.78809,21.7982 L 7.77969,21.7849
 L 6.96609,20.4572 L 6.95808,20.4437 L 6.18782,19.0933 L 6.18027,19.0796 L 5.45364,17.7072 L 5.44655,17.6932
 L 4.76166,16.2949 L 4.75494,16.2807 L 4.11476,14.8629 L 4.10851,14.8485 L 3.51425,13.414 L 3.50845,13.3994
 L 2.95876,11.9445 L 2.95349,11.9298 L 2.44965,10.4582 L 2.44476,10.4433 L 1.98769,8.95737 L 1.98334,8.94226
 L 1.57227,7.4395 L 1.5683,7.42432 L 1.27579,6.20598 L 1.26358,6.05003 L 1.30005,5.8979 L 1.38184,5.76454
 L 1.50078,5.66292 L 1.64528,5.60303 L 1.80122,5.59082 L 1.95335,5.62729 L 2.02843,5.66612 L 4.78699,7.40318
 L 4.96529,7.47963 L 5.11932,7.49359 L 5.26993,7.45941 L 5.4026,7.38029 L 5.5043,7.26418 L 5.56519,7.12219
 L 5.58067,6.95122 L 5.56564,6.85616 L 4.25133,1.66145 L 4.23714,1.50566 L 4.27177,1.35307 L 4.35188,1.21872
 L 4.41597,1.15463 L 8.52005,-2.26494 L 8.64784,-2.41089 L 8.70872,-2.55287 L 8.72269,-2.70691 L 8.68851,-2.85751
 L 8.60939,-2.99019 L 8.49327,-3.09189 L 8.33565,-3.15948 L 8.24051,-3.17451 L 2.89391,-3.52966 L 2.74132,-3.5643
 L 2.60696,-3.64441 L 2.50389,-3.76213 L 2.46277,-3.84285 L 0.478821,-8.80287 L 0.379333,-8.96973 L 0.263214,-9.07143
 L 0.121231,-9.13231 L -0.0328064,-9.14627 L -0.183411,-9.11209 L -0.316086,-9.03297 L -0.429001,-8.90404 L -0.472565,-8.81859
 L -2.46277,-3.84285 L -2.54288,-3.7085 L -2.6606,-3.60542 L -2.80434,-3.54385 L -2.89391,-3.52966 L -8.22388,-3.17558
 L -8.41347,-3.13255 L -8.54614,-3.05344 L -8.64784,-2.93732 L -8.70872,-2.79533 L -8.72269,-2.6413 L -8.68851,-2.49069
 L -8.60077,-2.34352 L -8.53271,-2.27547 L -4.41597,1.15463 L -4.3129,1.27235 L -4.25133,1.41609 L -4.23714,1.57188
 L -4.25133,1.66145 L -5.56152,6.8399 L -5.57915,7.03377 L -5.54497,7.18437 L -5.46585,7.31705 L -5.34973,7.41875
 L -5.20775,7.47963 L -5.05371,7.49359 L -4.88655,7.45567 L -4.80141,7.41219 L -2.02843,5.66612 L -1.88461,5.60455
 L -1.72882,5.59036 L -1.57631,5.625 L -1.44196,5.70511 L -1.33888,5.82283 L -1.27731,5.96664 L -1.26312,6.12244
 L -1.27579,6.20598 L -1.5683,7.42432 L -1.57227,7.4395 L -1.98372,8.94356 L -1.98807,8.95866 L -2.44476,10.4433
 L -2.44965,10.4582 L -2.95349,11.9298 L -2.95876,11.9445 L -3.50868,13.3999 L -3.51448,13.4145 L -4.10851,14.8485
 L -4.11476,14.8629 L -4.75494,16.2807 L -4.76166,16.2949 L -5.44724,17.6945 L -5.45433,17.7085 L -6.18263,19.0839
 L -6.19026,19.0976 L -6.95854,20.4443 L -6.96648,20.4578 L -7.78046,21.7861 L -7.78893,21.7994 L -8.64067,23.096
 L -8.64944,23.109 L -9.54613,24.3849 L -9.55536,24.3977 L -10.4858,25.6368 L -10.4955,25.6492 L -11.4687,26.8642
 L -11.4788,26.8763 L -12.4919,28.0624 L -12.5023,28.0743 L -13.5453,29.2204 L -13.556,29.2318 L -14.0054,29.6956
 L -14.1171,29.8546 L -14.1625,30.0022 L -14.16,30.1567 L -14.11,30.3028 L -14.0172,30.4265 L -13.8778,30.5244
 L -13.7823,30.5605 L -12.4479,30.9254 L -12.4249,30.9314 L -10.9176,31.2933 L -10.8925,31.2989 L -9.46976,31.5935
 L -9.32343,31.6487 L -9.20135,31.7465 L -9.11545,31.8773 L -9.07417,32.0282 L -9.08157,32.1844 L -9.12926,32.317
 L -10.005,33.9709 L -10.0125,33.9846 L -11.2617,36.1745 L -11.2698,36.188 L -12.5909,38.344 L -12.5993,38.3573
 L -13.9841,40.4654 L -13.9929,40.4784 L -15.4468,42.5469 L -15.456,42.5597 L -16.9736,44.581 L -16.9832,44.5934
 L -18.5575,46.5585 L -18.5676,46.5706 L -20.2136,48.4978 L -20.224,48.5097 L -21.9206,50.3741 L -21.9314,50.3856
 L -23.0345,51.524 L -23.1462,51.683 L -23.1916,51.8305 L -23.1892,51.9852 L -23.1393,52.1311 L -23.0463,52.2548
 L -22.9036,52.3551 L -22.8312,52.3838 L -22.5835,52.4599 L -22.555,52.4683 L -20.1329,53.1309 L -20.11,53.1367
 L -17.6585,53.7254 L -17.6334,53.731 L -15.1755,54.24 L -15.1478,54.2453 L -14.9312,54.2831 L -14.7832,54.3337
 L -14.6581,54.4276 L -14.5682,54.5557 L -14.5222,54.7052 L -14.5246,54.8616 L -14.5753,55.0096 L -16.1897,58.0585
 L -16.1972,58.0723 L -18.2238,61.6252 L -18.2318,61.6387 L -20.3749,65.136 L -20.3833,65.1492 L -22.6301,68.5696
 L -22.6389,68.5825 L -24.996,71.9362 L -25.0052,71.9489 L -27.4658,75.2264 L -27.4754,75.2388 L -30.0334,78.4315
 L -30.0435,78.4436 L -32.7072,81.5623 L -32.7176,81.5741 L -35.4734,84.6027 L -35.4842,84.6142 L -37.6385,86.8373
 L -37.7502,86.9963 L -37.7956,87.1439 L -37.7931,87.2986 L -37.7432,87.4445 L -37.6625,87.552 L -37.3972,87.7088
 L -36.5283,87.9762 L -36.5074,87.9822 L -32.5674,89.0601 L -32.5483,89.065 L -28.5608,90.0224 z
" stroke="black" fill="lightgray" stroke-width="0.5"/>
</svg>
