<?xml version="1.0" standalone="no"?>
<!DOCTYPE svg PUBLIC "-//W3C//DTD SVG 1.1//EN" "http://www.w3.org/Graphics/SVG/1.1/DTD/svg11.dtd">
<svg width="18mm" height="110mm" viewBox="-9 -10 18 110" xmlns="http://www.w3.org/2000/svg" version="1.1">
<title>OpenSCAD Model</title>
<path d="
M 5.26993,7.45941 L 5.4026,7.38029 L 5.5043,7.26418 L 5.56519,7.12219 L 5.58067,6.95122 L 5.56564,6.85616
 L 4.25133,1.66145 L 4.23714,1.50566 L 4.27177,1.35307 L 4.35188,1.21872 L 4.41597,1.15463 L 8.52005,-2.26494
 L 8.64784,-2.41089 L 8.70872,-2.55287 L 8.72269,-2.70691 L 8.68851,-2.85751 L 8.60939,-2.99019 L 8.49327,-3.09189
 L 8.33565,-3.15948 L 8.24051,-3.17451 L 2.89391,-3.52966 L 2.74132,-3.5643 L 2.60696,-3.64441 L 2.50389,-3.76213
 L 2.46277,-3.84285 L 0.478821,-8.80287 L 0.379333,-8.96973 L 0.263214,-9.07143 L 0.121231,-9.13231 L -0.0328064,-9.14627
 L -0.183411,-9.11209 L -0.316086,-9.03297 L -0.429001,-8.90404 L -0.472565,-8.81859 L -2.46277,-3.84285 L -2.54288,-3.7085
 L -2.6606,-3.60542 L -2.80434,-3.54385 L -2.89391,-3.52966 L -8.22388,-3.17558 L -8.41347,-3.13255 L -8.54614,-3.05344
 L -8.64784,-2.93732 L -8.70872,-2.79533 L -8.72269,-2.6413 L -8.68851,-2.49069 L -8.60077,-2.34352 L -8.53271,-2.27547
 L -4.41597,1.15463 L -4.3129,1.27235 L -4.25133,1.41609 L -4.23714,1.57188 L -4.25133,1.66145 L -5.56152,6.8399
 L -5.57915,7.03377 L -5.54497,7.18437 L -5.46585,7.31705 L -5.34973,7.41875 L -5.20775,7.47963 L -5.05371,7.49359
 L -4.88655,7.45567 L -4.80141,7.41226 L -0.266418,4.5565 L -0.122681,4.49493 L 0.0331116,4.48074 L 0.185699,4.51538
 L 0.266418,4.5565 L 4.78699,7.40318 L 4.96529,7.47963 L 5.11932,7.49359 z
M 7.15248,99.9696 L 7.29019,99.8994 L 7.39944,99.7902 L 7.46964,99.6525 L 7.49992,99.4609 L 7.49992,93.4289
 L 7.52441,93.2744 L 7.59544,93.135 L 7.70607,93.0244 L 7.84546,92.9533 L 7.976,92.9295 L 4.1246,93.1111
 L 4.10378,93.1117 L 0.0127411,93.176 L -0.0127411,93.176 L -4.10378,93.1117 L -4.1246,93.1111 L -7.97607,92.9295
 L -7.82326,92.9611 L -7.68738,93.0386 L -7.58209,93.1543 L -7.5177,93.2969 L -7.49992,93.4289 L -7.49992,99.4609
 L -7.46964,99.6525 L -7.39944,99.7902 L -7.29019,99.8994 L -7.15248,99.9696 L -6.96091,99.9999 L 6.96091,99.9999
 z
" stroke="black" fill="lightgray" stroke-width="0.5"/>
</svg>
